<svg width="20" height="20" viewBox="0 0 20 20" fill="none" xmlns="http://www.w3.org/2000/svg">
<path fill-rule="evenodd" clip-rule="evenodd" d="M16.0938 0H3.90625C1.74883 0 0 1.74883 0 3.90625V16.0938C0 18.2512 1.74883 20 3.90625 20H16.0938C18.2512 20 20 18.2512 20 16.0938V3.90625C20 1.74883 18.2512 0 16.0938 0ZM19.0234 16.0938C19.0234 17.7094 17.7094 19.0234 16.0938 19.0234H3.90625C2.29063 19.0234 0.976562 17.7094 0.976562 16.0938V3.90625C0.976562 2.29063 2.29063 0.976562 3.90625 0.976562H16.0938C17.7094 0.976562 19.0234 2.29063 19.0234 3.90625V16.0938Z" fill="#626262"/>
<path d="M11.8652 12.6481C11.8652 12.993 11.5672 13.2809 11.1859 13.2809C10.8691 13.2809 10.6273 13.1043 10.516 12.8344L10.1059 11.8664H7.58359L7.17422 12.8344C7.06211 13.1043 6.81133 13.2809 6.50352 13.2809C6.12227 13.2809 5.82422 12.993 5.82422 12.6481C5.82422 12.5086 5.86133 12.3602 5.91758 12.2477L8.16016 7.20276C8.31875 6.84885 8.5332 6.68127 8.83984 6.68127C9.14648 6.68127 9.37031 6.84885 9.51953 7.20276L11.7723 12.2477C11.8277 12.3598 11.8648 12.5082 11.8648 12.6481H11.8652ZM9.64062 10.7676L8.84023 8.8969L8.04883 10.7676H9.64062ZM14.1777 7.41682V12.602C14.1777 12.9832 13.852 13.3192 13.4707 13.3192C13.0895 13.3192 12.7535 12.9832 12.7535 12.602V7.41682C12.7535 7.03557 13.0793 6.70042 13.4707 6.70042C13.8621 6.70042 14.1777 7.03557 14.1777 7.41682Z" fill="#626262"/>
</svg>
