<svg width="20" height="20" viewBox="0 0 20 20" fill="none" xmlns="http://www.w3.org/2000/svg">
<mask id="mask0_1243_791" style="mask-type:alpha" maskUnits="userSpaceOnUse" x="0" y="0" width="20" height="20">
<rect width="20" height="20" fill="#D9D9D9"/>
</mask>
<g mask="url(#mask0_1243_791)">
<path d="M13.9611 8.28521C13.5605 8.28521 13.2171 8.14549 12.9309 7.86604C12.6445 7.58646 12.5013 7.24007 12.5013 6.82688V3.33333C12.5013 2.92014 12.6442 2.57382 12.9298 2.29438C13.2154 2.01479 13.5587 1.875 13.9598 1.875C14.3732 1.875 14.7195 2.01479 14.9988 2.29438C15.2782 2.57382 15.418 2.92014 15.418 3.33333V6.82688C15.418 7.24007 15.2784 7.58646 14.9992 7.86604C14.7199 8.14549 14.3739 8.28521 13.9611 8.28521ZM4.42443 17.9167C4.01012 17.9167 3.65547 17.7692 3.36047 17.4742C3.06547 17.1792 2.91797 16.8245 2.91797 16.4102V3.58979C2.91797 3.17549 3.06547 2.82083 3.36047 2.52583C3.65547 2.23083 4.01012 2.08333 4.42443 2.08333H10.6263V3.33333H4.42443C4.34957 3.33333 4.28811 3.35736 4.24005 3.40542C4.192 3.45347 4.16797 3.51493 4.16797 3.58979V16.4102C4.16797 16.4851 4.192 16.5465 4.24005 16.5946C4.28811 16.6426 4.34957 16.6667 4.42443 16.6667H13.0782C13.153 16.6667 13.2145 16.6426 13.2626 16.5946C13.3106 16.5465 13.3346 16.4851 13.3346 16.4102V14.8877H14.5846V16.4069C14.5846 16.8247 14.4371 17.1808 14.1421 17.4752C13.8471 17.7695 13.4925 17.9167 13.0782 17.9167H4.42443ZM6.04297 14.8877V13.5417H11.4596V14.8877H6.04297ZM6.04297 12.3877V11.1379H9.79297V12.3877H6.04297ZM14.5846 13.125H13.3346V10.9904C12.2866 10.844 11.3996 10.3814 10.6736 9.6025C9.94762 8.82375 9.58464 7.89854 9.58464 6.82688H10.8346C10.8346 7.65924 11.1434 8.36146 11.7609 8.93354C12.3784 9.50562 13.1111 9.79167 13.959 9.79167C14.8216 9.79167 15.5582 9.50562 16.1688 8.93354C16.7794 8.36146 17.0846 7.65924 17.0846 6.82688H18.3346C18.3346 7.90382 17.9751 8.83042 17.2561 9.60667C16.5371 10.3828 15.6466 10.844 14.5846 10.9904V13.125Z" fill="#626262"/>
</g>
</svg>
