<svg width="20" height="20" viewBox="0 0 20 20" fill="none" xmlns="http://www.w3.org/2000/svg">
<path fill-rule="evenodd" clip-rule="evenodd" d="M16.0938 0H3.90625C1.74883 0 0 1.74883 0 3.90625V16.0938C0 18.2512 1.74883 20 3.90625 20H16.0938C18.2512 20 20 18.2512 20 16.0938V3.90625C20 1.74883 18.2512 0 16.0938 0ZM19.0234 16.0938C19.0234 17.7094 17.7094 19.0234 16.0938 19.0234H3.90625C2.29063 19.0234 0.976562 17.7094 0.976562 16.0938V3.90625C0.976562 2.29063 2.29063 0.976562 3.90625 0.976562H16.0938C17.7094 0.976562 19.0234 2.29063 19.0234 3.90625V16.0938Z" fill="white"/>
<path d="M11.8641 12.6484C11.8641 12.9934 11.566 13.2812 11.1848 13.2812C10.868 13.2812 10.6262 13.1047 10.5149 12.8348L10.1047 11.8668H7.58243L7.17306 12.8348C7.06095 13.1047 6.81017 13.2812 6.50236 13.2812C6.12111 13.2812 5.82306 12.9934 5.82306 12.6484C5.82306 12.509 5.86017 12.3605 5.91642 12.248L8.159 7.20313C8.31759 6.84922 8.53204 6.68164 8.83868 6.68164C9.14532 6.68164 9.36915 6.84922 9.51837 7.20313L11.7711 12.248C11.8266 12.3602 11.8637 12.5086 11.8637 12.6484H11.8641ZM9.63947 10.768L8.83907 8.89727L8.04767 10.768H9.63947ZM14.1766 7.41719V12.6023C14.1766 12.9836 13.8508 13.3195 13.4695 13.3195C13.0883 13.3195 12.7524 12.9836 12.7524 12.6023V7.41719C12.7524 7.03594 13.0781 6.70078 13.4695 6.70078C13.8609 6.70078 14.1766 7.03594 14.1766 7.41719Z" fill="white"/>
</svg>
