<svg width="19" height="59" viewBox="0 0 19 59" fill="none" xmlns="http://www.w3.org/2000/svg">
<path d="M10.2672 53.5212C10.2012 50.9146 10.0287 47.7989 9.96691 45.3524C9.90353 42.9043 9.91132 41.1077 9.91132 41.1077C9.80689 39.6566 9.7487 38.2004 9.70714 36.7415C9.63596 32.8143 9.65311 28.8309 9.83651 24.9151C10.0157 20.991 10.3685 17.0898 11.0325 13.3018C11.299 11.8304 11.6253 10.3794 12.0201 8.97191C13.0369 10.9114 14.0531 12.8404 14.4324 13.5304C15.2262 14.9726 16.2804 15.473 18.0661 16.0876C18.5721 14.2681 18.7576 13.1158 18.0198 11.6444C17.6203 10.8475 16.3739 8.47784 15.2278 6.30719C14.4833 4.89716 13.772 3.55154 13.2478 2.55817C12.4337 1.06553 11.9084 0.102806 11.9084 0.102806C11.9084 0.102806 11.9001 0.0877266 11.8845 0.0586319C11.8768 0.0440826 11.8669 0.0259094 11.8549 0.00408936C11.8414 -0.0104561 11.8144 0.0285072 11.79 0.0420151C11.6871 0.121506 11.5354 0.238411 11.3421 0.388039C10.9561 0.686256 10.4018 1.11436 9.72792 1.63546C9.39126 1.89315 9.02654 2.19656 8.6374 2.50724C8.44309 2.66415 8.24359 2.82623 8.03837 2.99197C7.92355 3.08757 7.80613 3.18525 7.68612 3.285C7.25698 3.64557 6.79302 4.03575 6.31816 4.43476C4.4582 6.03287 2.42886 7.77592 1.75346 8.35625C0.523182 9.43379 0.294581 10.5404 0 12.4035C1.88282 12.5864 3.08557 12.4934 4.37196 11.4496C4.81565 11.0916 5.79342 10.2573 6.91979 9.29143C6.66833 10.3445 6.45376 11.3982 6.26205 12.4497C5.54716 16.5448 5.18712 20.6279 5.00268 24.6938C4.81512 28.7696 4.80058 32.7909 4.87695 36.862C4.91384 38.1728 4.96371 39.4857 5.051 40.7986C5.051 40.7986 5.15127 41.6652 5.33934 42.949C5.52898 44.2328 5.81265 45.9306 6.14308 47.5911C6.80393 50.9146 7.59727 54.0812 7.59572 53.7944C9.07174 59.0688 10.7125 62.3373 10.2672 53.5212Z" fill="white"/>
</svg>
