<svg width="373" height="207" viewBox="0 0 373 207" fill="none" xmlns="http://www.w3.org/2000/svg">
<g opacity="0.2">
<path d="M318.061 54.4395L274.198 98.3021L230.336 142.164C241.578 153.379 248.501 168.859 248.501 185.999H310.501H372.501C372.501 134.577 351.705 88.0839 318.061 54.4395Z" fill="url(#paint0_linear_1306_119905)"/>
<path d="M186.5 0V62V124C203.641 124 219.12 130.923 230.335 142.166L274.197 98.3032L318.06 54.4406C284.415 20.7959 237.922 0 186.5 0Z" fill="url(#paint1_linear_1306_119905)"/>
<path d="M54.9414 54.4404L98.8038 98.303L142.639 142.165H142.666C153.881 130.923 169.361 124 186.501 124V62V0C135.079 0 88.5859 20.7959 54.9414 54.4404Z" fill="url(#paint2_linear_1306_119905)"/>
<path d="M98.8027 98.3021L54.9404 54.4395C21.2959 88.0839 0.5 134.577 0.5 185.999H62.5H124.5C124.5 168.859 131.423 153.379 142.638 142.165L98.8027 98.3021Z" fill="url(#paint3_linear_1306_119905)"/>
</g>
<path d="M289.115 83.3867L254.903 117.599L220.691 151.81C229.46 160.558 234.86 172.631 234.86 186H283.219H331.577C331.577 145.893 315.357 109.629 289.115 83.3867Z" fill="url(#paint4_linear_1306_119905)"/>
<path d="M186.504 40.9238V89.2826V137.641C199.874 137.641 211.947 143.041 220.694 151.81L254.906 117.598L289.117 83.3861C262.876 57.144 226.612 40.9238 186.504 40.9238Z" fill="url(#paint5_linear_1306_119905)"/>
<path d="M83.8867 83.3861L118.098 117.598L152.289 151.81H152.31C161.058 143.041 173.131 137.641 186.5 137.641V89.2826V40.9238C146.393 40.9238 110.129 57.144 83.8867 83.3861Z" fill="url(#paint6_linear_1306_119905)"/>
<path d="M118.1 117.599L83.888 83.3867C57.6459 109.629 41.4258 145.893 41.4258 186.001H89.7845H138.143C138.143 172.631 143.543 160.558 152.29 151.811L118.1 117.599Z" fill="url(#paint7_linear_1306_119905)"/>
<path d="M316.534 88.7379L315.205 89.7806L310.859 84.2402L318.014 78.627L322.256 84.0347L320.927 85.0766L317.977 81.3148L316.423 82.5345L319.028 85.856L317.741 86.8662L315.135 83.5446L313.478 84.8434L316.534 88.7379Z" fill="white"/>
<path d="M320.509 97.3729L321.882 93.7809L318.058 93.7753L316.699 91.7779L322.416 91.9563L324.311 86.7998L325.658 88.7757L324.395 92.1639L327.989 92.2011L329.269 94.0804L323.854 93.9313L321.875 99.3804L320.509 97.3729Z" fill="white"/>
<path d="M324.616 103.06C324.586 102.209 324.772 101.419 325.172 100.689C325.571 99.9574 326.161 99.3643 326.938 98.91C327.715 98.4557 328.521 98.2329 329.355 98.2425C330.188 98.2519 330.968 98.4779 331.693 98.9211C332.419 99.3643 333.019 99.9899 333.491 100.798C333.888 101.479 334.129 102.164 334.211 102.853C334.292 103.543 334.218 104.205 333.989 104.842L332.229 104.305C332.532 103.415 332.454 102.578 331.996 101.793C331.712 101.307 331.35 100.936 330.916 100.679C330.478 100.422 330.009 100.299 329.501 100.308C328.997 100.319 328.501 100.465 328.014 100.75C327.528 101.034 327.157 101.394 326.9 101.83C326.643 102.266 326.52 102.737 326.529 103.243C326.539 103.749 326.686 104.245 326.97 104.731C327.43 105.516 328.125 105.992 329.056 106.161L328.661 107.957C327.987 107.85 327.368 107.589 326.805 107.176C326.242 106.762 325.762 106.215 325.364 105.535C324.896 104.734 324.647 103.91 324.616 103.06Z" fill="white"/>
<path d="M333.585 117.215L332.073 117.965L328.945 111.656L337.094 107.618L340.147 113.775L338.632 114.526L336.51 110.242L334.74 111.119L336.615 114.902L335.147 115.629L333.273 111.846L331.387 112.78L333.585 117.215Z" fill="white"/>
<path d="M341.944 117.776L342.756 119.718L335.948 122.564L337.706 126.771L336.124 127.433L333.555 121.284L341.944 117.776Z" fill="white"/>
<path d="M345.788 127.335L346.48 129.323L339.51 131.748L341.008 136.054L339.389 136.618L337.199 130.323L345.788 127.335Z" fill="white"/>
<path d="M343.818 145.957L342.191 146.409L340.309 139.623L349.072 137.192L350.909 143.815L349.282 144.267L348.003 139.66L346.102 140.187L347.23 144.256L345.653 144.694L344.524 140.625L342.496 141.187L343.818 145.957Z" fill="white"/>
<path d="M353.6 156.276L344.684 158.068L344.343 156.374L348.863 150.84L343.45 151.929L343.039 149.891L351.955 148.099L352.299 149.805L347.776 155.326L353.191 154.238L353.6 156.276Z" fill="white"/>
<path d="M352.866 163.037L352.491 160.15L354.193 159.931L355.21 167.79L353.508 168.01L353.135 165.124L345.817 166.07L345.547 163.983L352.866 163.037Z" fill="white"/>
<path d="M232.391 27.0844L234.245 27.591L233.273 31.1504C232.699 31.3797 232.071 31.5041 231.392 31.5249C230.713 31.5463 230.057 31.4694 229.421 31.2966C228.511 31.0474 227.745 30.6288 227.125 30.0422C226.505 29.4545 226.081 28.7599 225.856 27.9575C225.631 27.1559 225.637 26.32 225.873 25.4509C226.111 24.582 226.532 23.8595 227.133 23.2831C227.735 22.7076 228.457 22.3252 229.299 22.1382C230.139 21.9503 231.02 21.9819 231.939 22.2333C232.708 22.4436 233.37 22.7638 233.926 23.1944C234.481 23.6241 234.905 24.1444 235.197 24.7535L233.565 25.6002C233.118 24.7693 232.451 24.2327 231.567 23.9906C231.007 23.8375 230.477 23.8185 229.979 23.9337C229.481 24.0493 229.051 24.2864 228.693 24.6463C228.334 25.0064 228.081 25.4615 227.928 26.0134C227.781 26.5567 227.77 27.0736 227.895 27.5661C228.02 28.0583 228.266 28.4826 228.632 28.838C228.997 29.1939 229.456 29.4469 230.006 29.5977C230.591 29.7579 231.151 29.7759 231.689 29.6539L232.391 27.0844Z" fill="white"/>
<path d="M238.56 33.4541C237.984 32.8149 237.615 32.087 237.453 31.2694C237.29 30.452 237.36 29.6233 237.661 28.7834C237.962 27.9439 238.435 27.2601 239.08 26.7321C239.726 26.2048 240.473 25.8772 241.324 25.7495C242.174 25.6226 243.043 25.7187 243.933 26.0374C244.821 26.3561 245.552 26.8343 246.123 27.4718C246.696 28.1092 247.064 28.8372 247.23 29.6563C247.396 30.4754 247.328 31.3049 247.029 32.1437C246.727 32.9835 246.252 33.6671 245.603 34.1926C244.954 34.7194 244.206 35.0467 243.359 35.1752C242.513 35.3043 241.645 35.2092 240.756 34.8904C239.868 34.572 239.135 34.093 238.56 33.4541ZM242.856 33.3464C243.348 33.2599 243.784 33.0506 244.166 32.7183C244.547 32.386 244.832 31.9546 245.022 31.4249C245.213 30.8954 245.267 30.3807 245.183 29.8811C245.1 29.3822 244.895 28.9429 244.572 28.5648C244.247 28.1866 243.833 27.9059 243.327 27.725C242.821 27.5433 242.323 27.4957 241.833 27.5822C241.342 27.668 240.906 27.8773 240.525 28.2096C240.143 28.5426 239.857 28.9732 239.667 29.5034C239.477 30.0332 239.423 30.5479 239.507 31.0465C239.59 31.5462 239.792 31.9847 240.117 32.3638C240.443 32.742 240.857 33.0217 241.362 33.2036C241.866 33.3843 242.364 33.4319 242.856 33.3464Z" fill="white"/>
<path d="M250.629 38.1234C250.106 37.4398 249.796 36.684 249.701 35.8563C249.606 35.0293 249.742 34.2085 250.11 33.3957C250.478 32.5838 251.005 31.9399 251.69 31.4666C252.376 30.9924 253.147 30.7269 254.007 30.6687C254.865 30.6101 255.724 30.7759 256.584 31.1659C257.443 31.5551 258.132 32.0913 258.652 32.7731C259.169 33.4551 259.478 34.2099 259.578 35.0401C259.676 35.8696 259.543 36.6902 259.175 37.5032C258.807 38.3159 258.278 38.9582 257.589 39.43C256.899 39.9026 256.127 40.1681 255.274 40.2277C254.419 40.2879 253.561 40.123 252.702 39.7337C251.842 39.3435 251.151 38.8076 250.629 38.1234ZM254.92 38.3635C255.417 38.3176 255.867 38.1438 256.275 37.8433C256.682 37.5436 257.003 37.1369 257.234 36.6237C257.466 36.1107 257.561 35.6024 257.52 35.0981C257.477 34.5937 257.309 34.1402 257.015 33.7367C256.723 33.3331 256.333 33.0206 255.843 32.7987C255.355 32.5774 254.862 32.4894 254.365 32.5355C253.869 32.5813 253.417 32.7551 253.011 33.0556C252.603 33.3561 252.283 33.7628 252.051 34.275C251.819 34.7882 251.725 35.2963 251.766 35.8008C251.809 36.3052 251.977 36.7587 252.269 37.1623C252.562 37.5658 252.952 37.8791 253.441 38.1002C253.931 38.322 254.424 38.4093 254.92 38.3635Z" fill="white"/>
<path d="M264.766 35.2549L268.382 37.253C269.246 37.7312 269.919 38.3179 270.399 39.0142C270.882 39.7104 271.14 40.4597 271.176 41.2623C271.213 42.0639 271.012 42.8633 270.572 43.6595C270.133 44.4547 269.562 45.051 268.864 45.4466C268.165 45.8425 267.392 46.0215 266.549 45.9843C265.702 45.9478 264.847 45.6899 263.983 45.2127L260.367 43.2143L264.766 35.2549ZM264.728 43.6507C265.524 44.0899 266.282 44.2191 267.001 44.0376C267.719 43.856 268.288 43.3867 268.707 42.6287C269.126 41.8707 269.221 41.1386 268.993 40.4338C268.764 39.7283 268.252 39.1557 267.456 38.7155L265.773 37.7854L263.046 42.7206L264.728 43.6507Z" fill="white"/>
<path d="M106.729 38.0218L107.86 40.1437L111.574 38.1645L112.369 39.6551L108.653 41.6345L110.211 44.558L108.354 45.5474L104.078 37.5207L110.144 34.29L110.939 35.7809L106.729 38.0218Z" fill="white"/>
<path d="M121.727 36.7794L117.876 38.5121L117.943 40.6199L115.975 41.5041L115.941 31.5477L117.837 30.6953L125.276 37.3205L123.262 38.2269L121.727 36.7794ZM120.468 35.5938L117.724 33.0104L117.838 36.7769L120.468 35.5938Z" fill="white"/>
<path d="M124.762 27.8129L126.728 27.0596L129.981 35.5522L128.016 36.3053L124.762 27.8129Z" fill="white"/>
<path d="M139.376 32.3438L136.932 30.4667L136.832 30.4982L135.088 31.0573L135.862 33.4693L133.857 34.1117L131.082 25.4512L134.831 24.25C135.599 24.0042 136.306 23.9194 136.953 23.9939C137.6 24.0683 138.15 24.2921 138.605 24.6638C139.062 25.0365 139.394 25.5441 139.6 26.1872C139.806 26.8311 139.828 27.4352 139.668 28.0007C139.51 28.5652 139.184 29.0631 138.694 29.493L141.528 31.6538L139.376 32.3438ZM136.741 25.8687C136.344 25.7092 135.846 25.7267 135.243 25.9195L133.61 26.4428L134.577 29.4615L136.211 28.9381C136.813 28.7456 137.229 28.4663 137.457 28.1025C137.685 27.7377 137.724 27.3167 137.57 26.8377C137.415 26.3514 137.139 26.028 136.741 25.8687Z" fill="white"/>
<path d="M24.0636 138.19C24.4807 137.689 24.9707 137.352 25.5322 137.174C26.0938 136.997 26.6994 137 27.3497 137.179C27.9935 137.358 28.5107 137.668 28.9053 138.11C29.3002 138.552 29.5445 139.095 29.6414 139.736C29.738 140.379 29.6779 141.088 29.4622 141.864L28.9721 143.63L31.3891 144.3L30.826 146.328L22.0625 143.897L23.1155 140.104C23.3307 139.328 23.6463 138.689 24.0636 138.19ZM27.7697 140.019C27.5937 139.63 27.2654 139.367 26.78 139.233C26.2885 139.096 25.8665 139.15 25.516 139.394C25.164 139.639 24.9039 140.066 24.7355 140.675L24.2773 142.327L27.3191 143.171L27.7773 141.518C27.9474 140.91 27.9442 140.41 27.7697 140.019Z" fill="white"/>
<path d="M34.2032 133.461C33.564 134.036 32.8346 134.403 32.0162 134.563C31.1979 134.724 30.3701 134.652 29.531 134.349C28.6922 134.046 28.0101 133.571 27.4836 132.925C26.9568 132.28 26.6305 131.531 26.5067 130.68C26.38 129.829 26.4781 128.959 26.7986 128.071C27.1205 127.183 27.6009 126.455 28.2386 125.884C28.8778 125.314 29.6072 124.946 30.4273 124.782C31.2457 124.617 32.0749 124.687 32.914 124.99C33.7528 125.293 34.4349 125.771 34.9599 126.42C35.4847 127.07 35.8099 127.818 35.9368 128.666C36.0638 129.513 35.9669 130.38 35.645 131.268C35.3245 132.156 34.8438 132.887 34.2032 133.461ZM34.1066 129.164C34.0208 128.674 33.8115 128.236 33.4817 127.854C33.1487 127.472 32.719 127.185 32.189 126.994C31.661 126.803 31.1456 126.748 30.646 126.83C30.1463 126.913 29.707 127.115 29.3282 127.438C28.949 127.762 28.6683 128.176 28.4859 128.681C28.302 129.186 28.2544 129.684 28.34 130.175C28.424 130.666 28.6318 131.103 28.9633 131.485C29.2949 131.867 29.726 132.155 30.256 132.346C30.7857 132.537 31.2994 132.591 31.7991 132.51C32.2987 132.427 32.7363 132.225 33.1169 131.901C33.496 131.578 33.7768 131.164 33.9592 130.659C34.1413 130.154 34.1904 129.656 34.1066 129.164Z" fill="white"/>
<path d="M38.8734 121.459C38.1884 121.98 37.4334 122.287 36.6056 122.381C35.7779 122.475 34.9563 122.337 34.1443 121.968C33.3341 121.599 32.6917 121.07 32.2192 120.384C31.7466 119.698 31.4816 118.925 31.4244 118.067C31.369 117.209 31.5356 116.35 31.9273 115.491C32.319 114.632 32.8566 113.943 33.5387 113.426C34.2205 112.909 34.977 112.602 35.8065 112.503C36.6374 112.406 37.4573 112.541 38.2692 112.911C39.0812 113.281 39.7236 113.811 40.1929 114.501C40.664 115.191 40.929 115.964 40.9876 116.819C41.0463 117.673 40.8782 118.53 40.4882 119.389C40.0963 120.248 39.5584 120.938 38.8734 121.459ZM39.1224 117.168C39.0765 116.672 38.9052 116.219 38.604 115.811C38.3057 115.404 37.8997 115.084 37.386 114.85C36.8755 114.616 36.3663 114.521 35.8619 114.563C35.3576 114.604 34.9026 114.771 34.4998 115.063C34.0953 115.355 33.7812 115.745 33.5594 116.233C33.3358 116.723 33.2468 117.215 33.2929 117.712C33.3388 118.208 33.5101 118.66 33.8101 119.067C34.1098 119.475 34.5156 119.795 35.028 120.029C35.5402 120.262 36.0493 120.358 36.5536 120.316C37.058 120.275 37.5115 120.109 37.916 119.817C38.3205 119.525 38.6328 119.135 38.8564 118.646C39.078 118.157 39.1667 117.665 39.1224 117.168Z" fill="white"/>
<path d="M46.8127 106.625L43.7472 106.939L43.6964 107.031L42.813 108.636L45.0332 109.858L44.0167 111.701L36.0508 107.314L37.9508 103.866C38.3376 103.16 38.7943 102.612 39.3147 102.222C39.8365 101.832 40.3899 101.616 40.9783 101.573C41.5652 101.531 42.1536 101.672 42.7467 101.998C43.338 102.324 43.7697 102.747 44.0408 103.268C44.3134 103.788 44.4199 104.372 44.3581 105.022L47.9042 104.645L46.8127 106.625ZM40.4501 103.73C40.052 103.887 39.7017 104.242 39.3955 104.795L38.5693 106.298L41.3446 107.827L42.1726 106.325C42.477 105.77 42.5879 105.283 42.5041 104.861C42.4201 104.439 42.1583 104.107 41.719 103.864C41.2699 103.618 40.8481 103.573 40.4501 103.73Z" fill="white"/>
<path d="M182.52 177.195L277.974 132.729C278.986 132.25 279.915 133.757 278.896 134.402L190.363 191.415C180.459 197.21 172.3 182.522 182.52 177.195Z" fill="#1D3B63"/>
<path d="M175.202 165.678C185.492 159.48 198.863 162.782 205.069 173.072C207.307 176.787 208.306 180.891 208.186 184.929C207.977 192.072 204.25 198.97 197.678 202.924C187.394 209.14 174.021 205.832 167.814 195.542C161.607 185.258 164.919 171.894 175.202 165.678Z" fill="#1D3B63"/>
<path d="M180.783 174.928C185.962 171.808 192.692 173.471 195.816 178.65C196.942 180.52 197.446 182.585 197.385 184.618C197.28 188.214 195.404 191.686 192.096 193.676C186.92 196.805 180.188 195.14 177.064 189.96C173.94 184.784 175.606 178.057 180.783 174.928Z" fill="white"/>
<defs>
<linearGradient id="paint0_linear_1306_119905" x1="301.418" y1="188.432" x2="301.418" y2="153.798" gradientUnits="userSpaceOnUse">
<stop stop-color="#00963A"/>
<stop offset="0.1576" stop-color="#06A541"/>
<stop offset="0.4706" stop-color="#0FBD4B"/>
<stop offset="0.7597" stop-color="#14CC52"/>
<stop offset="1" stop-color="#16D154"/>
</linearGradient>
<linearGradient id="paint1_linear_1306_119905" x1="268.588" y1="105.189" x2="238.359" y2="75.5772" gradientUnits="userSpaceOnUse">
<stop stop-color="#FFAC05"/>
<stop offset="0.1821" stop-color="#FFBE10"/>
<stop offset="0.494" stop-color="#FFD820"/>
<stop offset="0.776" stop-color="#FFE82A"/>
<stop offset="1" stop-color="#FFED2D"/>
</linearGradient>
<linearGradient id="paint2_linear_1306_119905" x1="185.822" y1="71.0827" x2="139.538" y2="71.0827" gradientUnits="userSpaceOnUse">
<stop stop-color="#FF4D05"/>
<stop offset="0.2771" stop-color="#FF6E16"/>
<stop offset="0.5535" stop-color="#FF8822"/>
<stop offset="0.8024" stop-color="#FF982A"/>
<stop offset="1" stop-color="#FF9D2D"/>
</linearGradient>
<linearGradient id="paint3_linear_1306_119905" x1="104.13" y1="103.358" x2="83.1554" y2="127.417" gradientUnits="userSpaceOnUse">
<stop stop-color="#FF0508"/>
<stop offset="0.0461" stop-color="#FF0C0B"/>
<stop offset="0.3221" stop-color="#FF2F1A"/>
<stop offset="0.5813" stop-color="#FF4924"/>
<stop offset="0.8147" stop-color="#FF592B"/>
<stop offset="1" stop-color="#FF5E2D"/>
</linearGradient>
<linearGradient id="paint4_linear_1306_119905" x1="276.134" y1="187.898" x2="276.134" y2="160.884" gradientUnits="userSpaceOnUse">
<stop stop-color="#00963A"/>
<stop offset="0.1576" stop-color="#06A541"/>
<stop offset="0.4706" stop-color="#0FBD4B"/>
<stop offset="0.7597" stop-color="#14CC52"/>
<stop offset="1" stop-color="#16D154"/>
</linearGradient>
<linearGradient id="paint5_linear_1306_119905" x1="250.531" y1="122.969" x2="226.953" y2="99.8723" gradientUnits="userSpaceOnUse">
<stop stop-color="#FFAC05"/>
<stop offset="0.1821" stop-color="#FFBE10"/>
<stop offset="0.494" stop-color="#FFD820"/>
<stop offset="0.776" stop-color="#FFE82A"/>
<stop offset="1" stop-color="#FFED2D"/>
</linearGradient>
<linearGradient id="paint6_linear_1306_119905" x1="185.971" y1="96.3667" x2="149.87" y2="96.3667" gradientUnits="userSpaceOnUse">
<stop stop-color="#FF4D05"/>
<stop offset="0.2771" stop-color="#FF6E16"/>
<stop offset="0.5535" stop-color="#FF8822"/>
<stop offset="0.8024" stop-color="#FF982A"/>
<stop offset="1" stop-color="#FF9D2D"/>
</linearGradient>
<linearGradient id="paint7_linear_1306_119905" x1="122.255" y1="121.542" x2="105.895" y2="140.308" gradientUnits="userSpaceOnUse">
<stop stop-color="#FF0508"/>
<stop offset="0.0461" stop-color="#FF0C0B"/>
<stop offset="0.3221" stop-color="#FF2F1A"/>
<stop offset="0.5813" stop-color="#FF4924"/>
<stop offset="0.8147" stop-color="#FF592B"/>
<stop offset="1" stop-color="#FF5E2D"/>
</linearGradient>
</defs>
</svg>
