<svg width="18" height="19" viewBox="0 0 18 19" fill="none" xmlns="http://www.w3.org/2000/svg">
<mask id="mask0_169_224365" style="mask-type:alpha" maskUnits="userSpaceOnUse" x="0" y="0" width="18" height="19">
<rect y="0.5" width="18" height="18" fill="#D9D9D9"/>
</mask>
<g mask="url(#mask0_169_224365)">
<path d="M9 10.625C8.476 10.625 8.0325 10.4435 7.6695 10.0805C7.3065 9.7175 7.125 9.274 7.125 8.75V4.25C7.125 3.726 7.3065 3.2825 7.6695 2.9195C8.0325 2.5565 8.476 2.375 9 2.375C9.524 2.375 9.9675 2.5565 10.3305 2.9195C10.6935 3.2825 10.875 3.726 10.875 4.25V8.75C10.875 9.274 10.6935 9.7175 10.3305 10.0805C9.9675 10.4435 9.524 10.625 9 10.625ZM8.4375 16.0625V13.5903C7.2 13.4489 6.17188 12.9182 5.35313 11.9981C4.53438 11.0778 4.125 9.99512 4.125 8.75H5.25C5.25 9.7875 5.61563 10.6719 6.34688 11.4031C7.07812 12.1344 7.9625 12.5 9 12.5C10.0375 12.5 10.9219 12.1344 11.6531 11.4031C12.3844 10.6719 12.75 9.7875 12.75 8.75H13.875C13.875 9.99512 13.4656 11.0778 12.6469 11.9981C11.8281 12.9182 10.8 13.4489 9.5625 13.5903V16.0625H8.4375ZM9 9.5C9.2125 9.5 9.39062 9.42813 9.53438 9.28438C9.67812 9.14063 9.75 8.9625 9.75 8.75V4.25C9.75 4.0375 9.67812 3.85938 9.53438 3.71563C9.39062 3.57187 9.2125 3.5 9 3.5C8.7875 3.5 8.60938 3.57187 8.46562 3.71563C8.32188 3.85938 8.25 4.0375 8.25 4.25V8.75C8.25 8.9625 8.32188 9.14063 8.46562 9.28438C8.60938 9.42813 8.7875 9.5 9 9.5Z" fill="white"/>
</g>
</svg>
