<svg width="21" height="20" viewBox="0 0 21 20" fill="none" xmlns="http://www.w3.org/2000/svg">
<path fill-rule="evenodd" clip-rule="evenodd" d="M16.6938 0H4.50626C2.34883 0 0.600006 1.74883 0.600006 3.90625V16.0938C0.600006 18.2512 2.34883 20 4.50626 20H16.6938C18.8512 20 20.6 18.2512 20.6 16.0938V3.90625C20.6 1.74883 18.8512 0 16.6938 0ZM19.6234 16.0938C19.6234 17.7094 18.3094 19.0234 16.6938 19.0234H4.50626C2.89063 19.0234 1.57657 17.7094 1.57657 16.0938V3.90625C1.57657 2.29063 2.89063 0.976562 4.50626 0.976562H16.6938C18.3094 0.976562 19.6234 2.29063 19.6234 3.90625V16.0938Z" fill="black"/>
<path d="M12.4641 12.6479C12.4641 12.9929 12.166 13.2808 11.7848 13.2808C11.468 13.2808 11.2262 13.1042 11.1149 12.8343L10.7047 11.8663H8.18244L7.77307 12.8343C7.66096 13.1042 7.41017 13.2808 7.10236 13.2808C6.72111 13.2808 6.42307 12.9929 6.42307 12.6479C6.42307 12.5085 6.46017 12.3601 6.51642 12.2476L8.759 7.20264C8.9176 6.84873 9.13205 6.68115 9.43869 6.68115C9.74533 6.68115 9.96916 6.84873 10.1184 7.20264L12.3711 12.2476C12.4266 12.3597 12.4637 12.5081 12.4637 12.6479H12.4641ZM10.2395 10.7675L9.43908 8.89678L8.64767 10.7675H10.2395ZM14.7766 7.4167V12.6019C14.7766 12.9831 14.4508 13.319 14.0695 13.319C13.6883 13.319 13.3524 12.9831 13.3524 12.6019V7.4167C13.3524 7.03545 13.6781 6.70029 14.0695 6.70029C14.461 6.70029 14.7766 7.03545 14.7766 7.4167Z" fill="black"/>
</svg>
