<svg width="21" height="20" viewBox="0 0 21 20" fill="none" xmlns="http://www.w3.org/2000/svg">
<mask id="mask0_1243_785" style="mask-type:alpha" maskUnits="userSpaceOnUse" x="0" y="0" width="21" height="20">
<rect x="0.5" width="20" height="20" fill="#D9D9D9"/>
</mask>
<g mask="url(#mask0_1243_785)">
<path d="M4.2513 12.0833C3.66908 12.0833 3.1763 11.8817 2.77297 11.4783C2.36964 11.075 2.16797 10.5822 2.16797 10C2.16797 9.41778 2.36964 8.925 2.77297 8.52167C3.1763 8.11833 3.66908 7.91667 4.2513 7.91667V6.08979C4.2513 5.67549 4.3988 5.32083 4.6938 5.02583C4.9888 4.73083 5.34345 4.58333 5.75776 4.58333H8.41797C8.41797 4.00111 8.61964 3.50833 9.02297 3.105C9.4263 2.70167 9.91908 2.5 10.5013 2.5C11.0835 2.5 11.5763 2.70167 11.9796 3.105C12.383 3.50833 12.5846 4.00111 12.5846 4.58333H15.2448C15.6591 4.58333 16.0138 4.73083 16.3088 5.02583C16.6038 5.32083 16.7513 5.67549 16.7513 6.08979V7.91667C17.3335 7.91667 17.8263 8.11833 18.2296 8.52167C18.633 8.925 18.8346 9.41778 18.8346 10C18.8346 10.5822 18.633 11.075 18.2296 11.4783C17.8263 11.8817 17.3335 12.0833 16.7513 12.0833V15.5769C16.7513 15.9912 16.6038 16.3458 16.3088 16.6408C16.0138 16.9358 15.6591 17.0833 15.2448 17.0833H5.75776C5.34345 17.0833 4.9888 16.9358 4.6938 16.6408C4.3988 16.3458 4.2513 15.9912 4.2513 15.5769V12.0833ZM8.00026 10.625C8.28943 10.625 8.53547 10.5238 8.73839 10.3215C8.94144 10.1191 9.04297 9.8734 9.04297 9.58437C9.04297 9.29521 8.94179 9.04917 8.73943 8.84625C8.53707 8.64319 8.29137 8.54167 8.00234 8.54167C7.71318 8.54167 7.46714 8.64285 7.26422 8.84521C7.06116 9.04757 6.95964 9.29326 6.95964 9.58229C6.95964 9.87146 7.06082 10.1175 7.26318 10.3204C7.46554 10.5235 7.71123 10.625 8.00026 10.625ZM13.0003 10.625C13.2894 10.625 13.5355 10.5238 13.7384 10.3215C13.9414 10.1191 14.043 9.8734 14.043 9.58437C14.043 9.29521 13.9418 9.04917 13.7394 8.84625C13.5371 8.64319 13.2914 8.54167 13.0023 8.54167C12.7132 8.54167 12.4671 8.64285 12.2642 8.84521C12.0612 9.04757 11.9596 9.29326 11.9596 9.58229C11.9596 9.87146 12.0608 10.1175 12.2632 10.3204C12.4655 10.5235 12.7112 10.625 13.0003 10.625ZM7.3763 13.9583H13.6263V12.7083H7.3763V13.9583ZM5.75776 15.8333H15.2448C15.3197 15.8333 15.3812 15.8093 15.4292 15.7612C15.4773 15.7132 15.5013 15.6517 15.5013 15.5769V6.08979C15.5013 6.01493 15.4773 5.95347 15.4292 5.90542C15.3812 5.85736 15.3197 5.83333 15.2448 5.83333H5.75776C5.6829 5.83333 5.62144 5.85736 5.57339 5.90542C5.52533 5.95347 5.5013 6.01493 5.5013 6.08979V15.5769C5.5013 15.6517 5.52533 15.7132 5.57339 15.7612C5.62144 15.8093 5.6829 15.8333 5.75776 15.8333Z" fill="#626262"/>
</g>
</svg>
