<svg width="36" height="31" viewBox="0 0 36 31" fill="none" xmlns="http://www.w3.org/2000/svg">
<path opacity="0.4" d="M21.71 3.44444L24.0225 5.93164C24.5901 6.5421 25.386 6.88889 26.2196 6.88889H32V27.5556H4V6.88889H9.78043C10.614 6.88889 11.4099 6.54209 11.9775 5.93164L14.29 3.44444H21.71ZM23.25 0H12.75L11.0308 1.84903C10.0849 2.86645 8.75828 3.44444 7.36905 3.44444H4C2.075 3.44444 0.5 4.99444 0.5 6.88889V27.5556C0.5 29.45 2.075 31 4 31H32C33.925 31 35.5 29.45 35.5 27.5556V6.88889C35.5 4.99444 33.925 3.44444 32 3.44444H28.631C27.2417 3.44444 25.9151 2.86645 24.9692 1.84903L23.25 0ZM18 12.0556C20.8875 12.0556 23.25 14.3806 23.25 17.2222C23.25 20.0639 20.8875 22.3889 18 22.3889C15.1125 22.3889 12.75 20.0639 12.75 17.2222C12.75 14.3806 15.1125 12.0556 18 12.0556ZM18 8.61111C13.17 8.61111 9.25 12.4689 9.25 17.2222C9.25 21.9756 13.17 25.8333 18 25.8333C22.83 25.8333 26.75 21.9756 26.75 17.2222C26.75 12.4689 22.83 8.61111 18 8.61111Z" fill="#FF5146"/>
</svg>
