<svg width="18" height="18" viewBox="0 0 18 18" fill="none" xmlns="http://www.w3.org/2000/svg">
<mask id="mask0_169_224371" style="mask-type:alpha" maskUnits="userSpaceOnUse" x="0" y="0" width="18" height="18">
<rect width="18" height="18" fill="#D9D9D9"/>
</mask>
<g mask="url(#mask0_169_224371)">
<path d="M4.6875 10.3125H13.3125V9.1875H4.6875V10.3125ZM4.6875 8.0625H13.3125V6.9375H4.6875V8.0625ZM4.6875 5.8125H13.3125V4.6875H4.6875V5.8125ZM16.125 15.7789L13.4711 13.125H3.23081C2.85194 13.125 2.53125 12.9938 2.26875 12.7313C2.00625 12.4688 1.875 12.1481 1.875 11.7692V3.23081C1.875 2.85194 2.00625 2.53125 2.26875 2.26875C2.53125 2.00625 2.85194 1.875 3.23081 1.875H14.7692C15.1481 1.875 15.4688 2.00625 15.7313 2.26875C15.9938 2.53125 16.125 2.85194 16.125 3.23081V15.7789ZM3.23081 12H13.95L15 13.0386V3.23081C15 3.17306 14.9759 3.12019 14.9278 3.07219C14.8798 3.02406 14.8269 3 14.7692 3H3.23081C3.17306 3 3.12019 3.02406 3.07219 3.07219C3.02406 3.12019 3 3.17306 3 3.23081V11.7692C3 11.8269 3.02406 11.8798 3.07219 11.9278C3.12019 11.9759 3.17306 12 3.23081 12Z" fill="white"/>
</g>
</svg>
