<svg width="12" height="16" viewBox="0 0 12 16" fill="none" xmlns="http://www.w3.org/2000/svg">
<path d="M6 15.4525C5.66556 15.4525 5.36986 15.3644 5.11292 15.1882C4.85597 15.0118 4.67625 14.7804 4.57375 14.4942H4.33333C3.9925 14.4942 3.69896 14.3711 3.45271 14.1248C3.20646 13.8786 3.08333 13.585 3.08333 13.2442V10.5102C2.2425 10.0007 1.5809 9.31746 1.09854 8.46065C0.61618 7.60371 0.375 6.68648 0.375 5.70898C0.375 4.14065 0.920417 2.81107 2.01125 1.72023C3.10208 0.629401 4.43167 0.0839844 6 0.0839844C7.56833 0.0839844 8.89792 0.629401 9.98875 1.72023C11.0796 2.81107 11.625 4.14065 11.625 5.70898C11.625 6.70357 11.3838 7.62503 10.9015 8.47336C10.4191 9.32169 9.7575 10.0007 8.91667 10.5102V13.2442C8.91667 13.585 8.79354 13.8786 8.54729 14.1248C8.30104 14.3711 8.0075 14.4942 7.66667 14.4942H7.42625C7.32375 14.7804 7.14403 15.0118 6.88708 15.1882C6.63014 15.3644 6.33444 15.4525 6 15.4525ZM4.33333 13.2442H7.66667V12.4621H4.33333V13.2442ZM4.33333 11.725H7.66667V10.9173H4.33333V11.725ZM4.16667 9.66732H5.50312V7.24107L3.71792 5.45586L4.41667 4.75711L6 6.34044L7.58333 4.75711L8.28208 5.45586L6.49687 7.24107V9.66732H7.83333C8.58333 9.30621 9.19444 8.77496 9.66667 8.07357C10.1389 7.37218 10.375 6.58398 10.375 5.70898C10.375 4.48676 9.95139 3.45204 9.10417 2.60482C8.25694 1.7576 7.22222 1.33398 6 1.33398C4.77778 1.33398 3.74306 1.7576 2.89583 2.60482C2.04861 3.45204 1.625 4.48676 1.625 5.70898C1.625 6.58398 1.86111 7.37218 2.33333 8.07357C2.80556 8.77496 3.41667 9.30621 4.16667 9.66732Z" fill="#626262"/>
</svg>
