<svg width="20" height="20" viewBox="0 0 20 20" fill="none" xmlns="http://www.w3.org/2000/svg">
<path d="M9.45322 19.2188C9.45322 19.6503 9.10349 20 8.67197 20H4.17978C2.4566 20 1.05478 18.5982 1.05478 16.875V3.125C1.05478 1.40182 2.4566 0 4.17978 0H13.7849C15.5079 0 16.9099 1.40182 16.9099 3.125V11.4062C16.9099 11.8378 16.56 12.1875 16.1286 12.1875C15.6971 12.1875 15.3474 11.8378 15.3474 11.4062V3.125C15.3474 2.26349 14.6464 1.5625 13.7849 1.5625H4.17978C3.31827 1.5625 2.61728 2.26349 2.61728 3.125V16.875C2.61728 17.7365 3.31827 18.4375 4.17978 18.4375H8.67197C9.10349 18.4375 9.45322 18.7872 9.45322 19.2188ZM18.6579 12.7242C18.3071 12.473 17.8192 12.5539 17.568 12.9045L13.7171 18.2835C13.612 18.4055 13.4802 18.4317 13.4097 18.4364C13.3367 18.4412 13.1957 18.432 13.0747 18.3168L10.5818 15.923C10.2706 15.6242 9.77609 15.6342 9.47717 15.9454C9.17825 16.2567 9.18832 16.7513 9.4996 17.05L11.995 19.4463C12.3689 19.8019 12.8677 20 13.381 20C13.4251 20 13.4693 19.9985 13.5136 19.9956C14.0727 19.9583 14.5947 19.6864 14.9458 19.2494C14.9548 19.2383 14.9636 19.2267 14.972 19.2149L18.8384 13.8141C19.0896 13.4633 19.0089 12.9753 18.6579 12.7242ZM13.0036 4.6875H4.95676C4.52524 4.6875 4.17551 5.03723 4.17551 5.46875C4.17551 5.90027 4.52524 6.25 4.95676 6.25H13.0036C13.435 6.25 13.7849 5.90027 13.7849 5.46875C13.7849 5.03723 13.435 4.6875 13.0036 4.6875ZM13.7849 8.59375C13.7849 8.16223 13.435 7.8125 13.0036 7.8125H4.95676C4.52524 7.8125 4.17551 8.16223 4.17551 8.59375C4.17551 9.02527 4.52524 9.375 4.95676 9.375H13.0036C13.435 9.375 13.7849 9.02527 13.7849 8.59375ZM4.95676 10.9375C4.52524 10.9375 4.17551 11.2872 4.17551 11.7188C4.17551 12.1503 4.52524 12.5 4.95676 12.5H9.84384C10.2754 12.5 10.6251 12.1503 10.6251 11.7188C10.6251 11.2872 10.2754 10.9375 9.84384 10.9375H4.95676Z" fill="white"/>
</svg>
