<svg width="20" height="20" viewBox="0 0 20 20" fill="none" xmlns="http://www.w3.org/2000/svg">
<path d="M9.45312 19.2188C9.45312 19.6503 9.10339 20 8.67188 20H4.17969C2.45651 20 1.05469 18.5982 1.05469 16.875V3.125C1.05469 1.40182 2.45651 0 4.17969 0H13.7848C15.5078 0 16.9098 1.40182 16.9098 3.125V11.4062C16.9098 11.8378 16.5599 12.1875 16.1285 12.1875C15.697 12.1875 15.3473 11.8378 15.3473 11.4062V3.125C15.3473 2.26349 14.6463 1.5625 13.7848 1.5625H4.17969C3.31818 1.5625 2.61719 2.26349 2.61719 3.125V16.875C2.61719 17.7365 3.31818 18.4375 4.17969 18.4375H8.67188C9.10339 18.4375 9.45312 18.7872 9.45312 19.2188ZM18.6578 12.7242C18.307 12.473 17.8191 12.5539 17.5679 12.9045L13.717 18.2835C13.6119 18.4055 13.4801 18.4317 13.4096 18.4364C13.3366 18.4412 13.1956 18.432 13.0746 18.3168L10.5817 15.923C10.2705 15.6242 9.776 15.6342 9.47708 15.9454C9.17816 16.2567 9.18823 16.7513 9.49951 17.05L11.9949 19.4463C12.3688 19.8019 12.8676 20 13.3809 20C13.425 20 13.4692 19.9985 13.5135 19.9956C14.0726 19.9583 14.5946 19.6864 14.9457 19.2494C14.9547 19.2383 14.9635 19.2267 14.9719 19.2149L18.8383 13.8141C19.0895 13.4633 19.0088 12.9753 18.6578 12.7242ZM13.0035 4.6875H4.95667C4.52515 4.6875 4.17542 5.03723 4.17542 5.46875C4.17542 5.90027 4.52515 6.25 4.95667 6.25H13.0035C13.4349 6.25 13.7848 5.90027 13.7848 5.46875C13.7848 5.03723 13.4349 4.6875 13.0035 4.6875ZM13.7848 8.59375C13.7848 8.16223 13.4349 7.8125 13.0035 7.8125H4.95667C4.52515 7.8125 4.17542 8.16223 4.17542 8.59375C4.17542 9.02527 4.52515 9.375 4.95667 9.375H13.0035C13.4349 9.375 13.7848 9.02527 13.7848 8.59375ZM4.95667 10.9375C4.52515 10.9375 4.17542 11.2872 4.17542 11.7188C4.17542 12.1503 4.52515 12.5 4.95667 12.5H9.84375C10.2753 12.5 10.625 12.1503 10.625 11.7188C10.625 11.2872 10.2753 10.9375 9.84375 10.9375H4.95667Z" fill="#626262"/>
</svg>
