<svg width="24" height="24" viewBox="0 0 24 24" fill="none" xmlns="http://www.w3.org/2000/svg">
<g clip-path="url(#clip0_1280_679)">
<path d="M21.3437 8.1C21.3145 8.03316 21.2664 7.97627 21.2054 7.93631C21.1444 7.89634 21.0731 7.87504 21.0002 7.875H11.9251L15.7085 0.547125C15.7381 0.489946 15.7524 0.426127 15.7501 0.361807C15.7479 0.297488 15.7291 0.234834 15.6956 0.179874C15.6621 0.124913 15.615 0.0794971 15.5589 0.0479946C15.5028 0.0164921 15.4395 -3.6227e-05 15.3752 5.96197e-08H9.61703C9.54914 -2.71921e-05 9.48251 0.0183763 9.42426 0.0532472C9.36601 0.0881181 9.31832 0.138148 9.28628 0.198L2.6694 12.573C2.63881 12.6301 2.62355 12.6942 2.62511 12.759C2.62667 12.8238 2.64501 12.8871 2.67832 12.9427C2.71164 12.9983 2.7588 13.0444 2.81521 13.0763C2.87161 13.1082 2.93533 13.125 3.00015 13.125H10.6877L6.40365 23.4814C6.36994 23.5627 6.36589 23.6532 6.3922 23.7372C6.41851 23.8211 6.4735 23.8932 6.54756 23.9407C6.62162 23.9882 6.71002 24.0081 6.79731 23.997C6.88459 23.9859 6.9652 23.9445 7.02503 23.88L21.275 8.505C21.3246 8.45149 21.3575 8.38467 21.3697 8.31273C21.3819 8.2408 21.3729 8.16686 21.3437 8.1Z" fill="#B2B2B2"/>
</g>
<defs>
<clipPath id="clip0_1280_679">
<rect width="24" height="24" fill="white"/>
</clipPath>
</defs>
</svg>
