<svg width="20" height="21" viewBox="0 0 20 21" fill="none" xmlns="http://www.w3.org/2000/svg">
<path d="M18.9908 8.06427H18.2336V8.0228H9.7731V12.0198H15.0858C14.3107 14.3465 12.2281 16.0168 9.7731 16.0168C6.65823 16.0168 4.13278 13.3323 4.13278 10.0213C4.13278 6.71029 6.65823 4.0258 9.7731 4.0258C11.2109 4.0258 12.519 4.60237 13.515 5.54416L16.1739 2.71779C14.495 1.05454 12.2492 0.0288086 9.7731 0.0288086C4.58165 0.0288086 0.372559 4.50295 0.372559 10.0213C0.372559 15.5396 4.58165 20.0138 9.7731 20.0138C14.9646 20.0138 19.1736 15.5396 19.1736 10.0213C19.1736 9.3513 19.1088 8.69729 18.9908 8.06427Z" fill="#FFC107"/>
<path d="M9.77313 20.0139C12.2013 20.0139 14.4076 19.0261 16.0757 17.4198L13.1663 14.8028C12.1907 15.5914 10.9987 16.0179 9.77313 16.0169C7.32805 16.0169 5.25194 14.3596 4.46981 12.0469L1.4043 14.5575C2.96009 17.7936 6.11961 20.0139 9.77313 20.0139Z" fill="#4CAF50"/>
<path d="M18.9908 8.06442H18.2336V8.02295H9.77307V12.0199H15.0858C14.715 13.1273 14.0472 14.095 13.1648 14.8034L13.1662 14.8024L16.0757 17.4194C15.8698 17.6182 19.1736 15.0177 19.1736 10.0214C19.1736 9.35145 19.1088 8.69744 18.9908 8.06442Z" fill="#1976D2"/>
<path d="M1.45642 5.37029L4.54497 7.77798C5.38068 5.57864 7.40462 4.0258 9.77308 4.0258C11.2109 4.0258 12.519 4.60237 13.515 5.54416L16.1739 2.71779C14.495 1.05454 12.2492 0.0288086 9.77308 0.0288086C6.16233 0.0288086 3.03101 2.19568 1.45642 5.37029Z" fill="#FF3D00"/>
</svg>
