<svg width="24" height="25" viewBox="0 0 24 25" fill="none" xmlns="http://www.w3.org/2000/svg">
<mask id="mask0_1378_11126" style="mask-type:alpha" maskUnits="userSpaceOnUse" x="0" y="0" width="24" height="25">
<rect y="0.5" width="24" height="24" fill="#D9D9D9"/>
</mask>
<g mask="url(#mask0_1378_11126)">
<path d="M11.9793 21C9.81398 21 7.92681 20.2872 6.31781 18.8615C4.70881 17.4358 3.78256 15.6487 3.53906 13.5H5.06981C5.32231 15.227 6.09956 16.6587 7.40156 17.7952C8.7034 18.9318 10.2293 19.5 11.9793 19.5C13.9293 19.5 15.5835 18.8208 16.9418 17.4625C18.3001 16.1042 18.9793 14.45 18.9793 12.5C18.9793 10.55 18.3001 8.89583 16.9418 7.5375C15.5835 6.17917 13.9293 5.5 11.9793 5.5C10.887 5.5 9.86331 5.74267 8.90831 6.228C7.95315 6.71317 7.13065 7.38075 6.44081 8.23075H9.05631V9.73075H3.97931V4.65375H5.47931V7.023C6.29081 6.06533 7.26265 5.32208 8.39481 4.79325C9.52681 4.26442 10.7216 4 11.9793 4C13.1588 4 14.264 4.22308 15.2948 4.66925C16.3255 5.11542 17.2241 5.72183 17.9908 6.4885C18.7575 7.25517 19.3639 8.15392 19.8101 9.18475C20.2562 10.2154 20.4793 11.3205 20.4793 12.5C20.4793 13.6795 20.2562 14.7846 19.8101 15.8152C19.3639 16.8461 18.7575 17.7448 17.9908 18.5115C17.2241 19.2782 16.3255 19.8846 15.2948 20.3307C14.264 20.7769 13.1588 21 11.9793 21ZM14.9813 16.527L11.2583 12.8038V7.5H12.7581V12.1962L16.0351 15.473L14.9813 16.527Z" fill="#FF633F"/>
</g>
</svg>
