<svg width="20" height="20" viewBox="0 0 20 20" fill="none" xmlns="http://www.w3.org/2000/svg">
<path d="M14.6687 20H5.33125C4.44775 20 3.60043 19.649 2.9757 19.0243C2.35097 18.3996 2 17.5523 2 16.6688V3.33125C2 2.44775 2.35097 1.60043 2.9757 0.975701C3.60043 0.35097 4.44775 0 5.33125 0L10.4187 0C11.1594 0.00256412 11.8783 0.250976 12.4625 0.70625L16.7125 4.00625C17.1145 4.31676 17.4397 4.71557 17.6629 5.17182C17.8862 5.62807 18.0015 6.12956 18 6.6375V16.6375C18.0041 17.0776 17.921 17.5141 17.7554 17.9219C17.5899 18.3297 17.3452 18.7006 17.0354 19.0133C16.7257 19.3259 16.357 19.5741 15.9508 19.7435C15.5446 19.9128 15.1089 20 14.6687 20ZM5.33125 1.33125C4.80082 1.33125 4.29211 1.54196 3.91704 1.91704C3.54196 2.29211 3.33125 2.80082 3.33125 3.33125V16.6688C3.33125 17.1992 3.54196 17.7079 3.91704 18.083C4.29211 18.458 4.80082 18.6688 5.33125 18.6688H14.6687C15.1992 18.6688 15.7079 18.458 16.083 18.083C16.458 17.7079 16.6687 17.1992 16.6687 16.6688V6.66875C16.6697 6.36335 16.6003 6.06184 16.4659 5.78761C16.3315 5.51338 16.1357 5.27381 15.8937 5.0875L11.6437 1.78125C11.287 1.50261 10.8464 1.35283 10.3937 1.35625L5.33125 1.33125Z" fill="#626262"/>
<path d="M13.3294 7.3312H6.66692C6.57409 7.34021 6.4804 7.3297 6.39187 7.30034C6.30335 7.27099 6.22194 7.22344 6.15288 7.16076C6.08382 7.09807 6.02863 7.02164 5.99087 6.93636C5.9531 6.85108 5.93359 6.75884 5.93359 6.66558C5.93359 6.57231 5.9531 6.48007 5.99087 6.39479C6.02863 6.30952 6.08382 6.23308 6.15288 6.17039C6.22194 6.10771 6.30335 6.06016 6.39187 6.03081C6.4804 6.00146 6.57409 5.99095 6.66692 5.99995H13.3294C13.4222 5.99095 13.5159 6.00146 13.6045 6.03081C13.693 6.06016 13.7744 6.10771 13.8435 6.17039C13.9125 6.23308 13.9677 6.30952 14.0055 6.39479C14.0432 6.48007 14.0627 6.57231 14.0627 6.66558C14.0627 6.75884 14.0432 6.85108 14.0055 6.93636C13.9677 7.02164 13.9125 7.09807 13.8435 7.16076C13.7744 7.22344 13.693 7.27099 13.6045 7.30034C13.5159 7.3297 13.4222 7.34021 13.3294 7.3312Z" fill="#626262"/>
<path d="M13.3331 10.6688H6.67058C6.50517 10.6527 6.35167 10.5757 6.23997 10.4526C6.12828 10.3296 6.06641 10.1693 6.06641 10.0031C6.06641 9.83697 6.12828 9.67674 6.23997 9.55368C6.35167 9.43063 6.50517 9.35357 6.67058 9.33752H13.3331C13.4985 9.35357 13.652 9.43063 13.7637 9.55368C13.8754 9.67674 13.9373 9.83697 13.9373 10.0031C13.9373 10.1693 13.8754 10.3296 13.7637 10.4526C13.652 10.5757 13.4985 10.6527 13.3331 10.6688Z" fill="#626262"/>
<path d="M12 16.6687H8C7.46957 16.6687 6.96086 16.458 6.58579 16.0829C6.21071 15.7078 6 15.1991 6 14.6687C6 14.1383 6.21071 13.6296 6.58579 13.2545C6.96086 12.8794 7.46957 12.6687 8 12.6687H12C12.5304 12.6687 13.0391 12.8794 13.4142 13.2545C13.7893 13.6296 14 14.1383 14 14.6687C14 15.1991 13.7893 15.7078 13.4142 16.0829C13.0391 16.458 12.5304 16.6687 12 16.6687ZM8 14C7.83459 14.016 7.68108 14.0931 7.56939 14.2161C7.4577 14.3392 7.39582 14.4994 7.39582 14.6656C7.39582 14.8318 7.4577 14.992 7.56939 15.115C7.68108 15.2381 7.83459 15.3152 8 15.3312H12C12.1654 15.3152 12.3189 15.2381 12.4306 15.115C12.5423 14.992 12.6042 14.8318 12.6042 14.6656C12.6042 14.4994 12.5423 14.3392 12.4306 14.2161C12.3189 14.0931 12.1654 14.016 12 14H8Z" fill="#626262"/>
</svg>
