<svg width="50" height="50" viewBox="0 0 50 50" fill="none" xmlns="http://www.w3.org/2000/svg">
<path d="M25.0308 1.465C14.5889 1.45145 6.08273 9.93427 6.06918 20.3747C6.06121 26.5193 8.99651 31.9926 13.541 35.4605L13.5243 48.3446C13.524 48.5386 13.6217 48.7196 13.784 48.8258C13.9464 48.9319 14.1511 48.9492 14.3289 48.8713L24.9753 44.2075L35.6096 48.8989C35.6836 48.9315 35.7623 48.9476 35.8407 48.9477C35.9505 48.9479 36.0598 48.9165 36.1546 48.8547C36.3172 48.7489 36.4154 48.5681 36.4157 48.3742L36.4324 35.4902C40.9859 32.0342 43.9354 26.5685 43.9434 20.4238C43.9569 9.98341 35.4728 1.47855 25.0308 1.465Z" fill="#F5B945"/>
<path d="M24.9798 39.3368C20.6824 39.3313 16.7174 37.8864 13.5391 35.4609L13.5223 48.3451C13.5221 48.539 13.6198 48.7201 13.7821 48.8262C13.9445 48.9324 14.1492 48.9496 14.327 48.8717L24.9734 44.2079L35.6077 48.8993C35.6817 48.9319 35.7604 48.948 35.8388 48.9481C35.9486 48.9483 36.0579 48.9169 36.1527 48.8551C36.3153 48.7493 36.4135 48.5686 36.4137 48.3747L36.4305 35.4906C33.2459 37.9077 29.2772 39.3424 24.9798 39.3368Z" fill="#F76C82"/>
<path d="M27.1622 33.8546C34.5907 32.6603 39.6445 25.6701 38.4502 18.2417C37.2558 10.8132 30.2657 5.75937 22.8372 6.9537C15.4087 8.14802 10.3549 15.1382 11.5492 22.5667C12.7436 29.9952 19.7337 35.049 27.1622 33.8546Z" fill="#FDCD56"/>
<path d="M25.0187 9.95788C19.2617 9.95041 14.572 14.6293 14.5646 20.3879C14.5571 26.1466 19.2346 30.8376 24.9916 30.8451C30.7485 30.8525 35.4412 26.1736 35.4487 20.415C35.4562 14.6565 30.7772 9.96535 25.0187 9.95788Z" fill="#F5B945"/>
<path d="M15.1388 20.3887C15.1461 14.7261 19.6809 10.1077 25.3058 9.96237C25.2103 9.95966 25.1146 9.95801 25.0187 9.95788C19.2617 9.95041 14.572 14.6293 14.5646 20.3879C14.5571 26.1466 19.2346 30.8376 24.9916 30.8451C25.0876 30.8452 25.1833 30.8438 25.2787 30.8413C19.6541 30.6814 15.1314 26.0512 15.1388 20.3887Z" fill="#EAAB3B"/>
<path d="M28.6368 22.5989C28.6387 21.1664 27.936 20.4016 27.3463 20.0124C26.6988 19.5849 25.9253 19.4213 25.2429 19.277C25.2426 19.277 25.2423 19.277 25.242 19.2769C23.7889 18.969 23.6729 18.8323 23.6737 18.2026C23.6744 17.6345 24.2862 17.1554 25.0095 17.1563C25.5099 17.157 25.9648 17.3777 26.1969 17.7322C26.5443 18.2628 27.2562 18.4113 27.7868 18.064C28.3175 17.7166 28.4661 17.0047 28.1186 16.4741C27.6707 15.7901 26.9677 15.2839 26.1606 15.0339L26.1611 14.6585C26.1619 14.0243 25.6484 13.5094 25.0142 13.5086C24.3799 13.5078 23.8651 14.0213 23.8642 14.6556L23.8638 15.0302C22.4222 15.4721 21.3786 16.7248 21.3767 18.1995C21.3749 19.6324 22.0763 20.3977 22.6652 20.7874C23.3123 21.2158 24.0845 21.3794 24.7673 21.524C25.45 21.6686 24.7676 21.524 24.7678 21.524C26.2244 21.832 26.3406 21.9683 26.3398 22.5957C26.3391 23.1638 25.7261 23.6429 25.001 23.6419C24.5023 23.6413 24.0466 23.4194 23.8117 23.0631C23.4628 22.5336 22.7505 22.387 22.2209 22.7361C21.6913 23.0852 21.5449 23.7974 21.8939 24.327C22.3513 25.0211 23.0444 25.5229 23.8498 25.7686L23.8493 26.1396C23.8485 26.7739 24.3621 27.2887 24.9963 27.2896C25.6305 27.2904 26.1454 26.7768 26.1462 26.1426L26.1467 25.7682C27.59 25.3265 28.6348 24.0738 28.6367 22.5987L28.6368 22.5989Z" fill="#DAA33B"/>
<path d="M25.0293 1.46498C24.7406 1.46461 24.4535 1.4718 24.1679 1.48425C34.2111 1.94919 42.2324 10.2699 42.2192 20.4216C42.206 30.5733 34.1632 38.8759 24.1189 39.3148C24.4044 39.328 24.6914 39.336 24.9802 39.3364C35.4221 39.3499 43.9283 30.8658 43.9419 20.4238C43.9554 9.98186 35.4713 1.47853 25.0293 1.46498Z" fill="#EAAB3B"/>
<path d="M18.8443 46.8941L24.9762 44.208L31.0982 46.9088L31.1094 38.3274C29.1864 38.9841 27.1254 39.3396 24.9825 39.3368C22.8396 39.334 20.7775 38.9728 18.8555 38.3105L18.8443 46.8941Z" fill="#EB5463"/>
</svg>
