<svg width="20" height="20" viewBox="0 0 20 20" fill="none" xmlns="http://www.w3.org/2000/svg">
<mask id="mask0_1230_26272" style="mask-type:alpha" maskUnits="userSpaceOnUse" x="0" y="0" width="20" height="20">
<rect width="20" height="20" fill="#D9D9D9"/>
</mask>
<g mask="url(#mask0_1230_26272)">
<path d="M10 17.4518C9.66556 17.4518 9.36986 17.3637 9.11292 17.1874C8.85597 17.011 8.67625 16.7797 8.57375 16.4935H8.33333C7.9925 16.4935 7.69896 16.3703 7.45271 16.1241C7.20646 15.8778 7.08333 15.5843 7.08333 15.2435V12.5095C6.2425 11.9999 5.5809 11.3167 5.09854 10.4599C4.61618 9.60297 4.375 8.68575 4.375 7.70825C4.375 6.13992 4.92042 4.81034 6.01125 3.7195C7.10208 2.62867 8.43167 2.08325 10 2.08325C11.5683 2.08325 12.8979 2.62867 13.9888 3.7195C15.0796 4.81034 15.625 6.13992 15.625 7.70825C15.625 8.70284 15.3838 9.62429 14.9015 10.4726C14.4191 11.321 13.7575 11.9999 12.9167 12.5095V15.2435C12.9167 15.5843 12.7935 15.8778 12.5473 16.1241C12.301 16.3703 12.0075 16.4935 11.6667 16.4935H11.4263C11.3238 16.7797 11.144 17.011 10.8871 17.1874C10.6301 17.3637 10.3344 17.4518 10 17.4518ZM8.33333 15.2435H11.6667V14.4614H8.33333V15.2435ZM8.33333 13.7243H11.6667V12.9166H8.33333V13.7243ZM8.16667 11.6666H9.50312V9.24033L7.71792 7.45513L8.41667 6.75638L10 8.33971L11.5833 6.75638L12.2821 7.45513L10.4969 9.24033V11.6666H11.8333C12.5833 11.3055 13.1944 10.7742 13.6667 10.0728C14.1389 9.37145 14.375 8.58325 14.375 7.70825C14.375 6.48603 13.9514 5.45131 13.1042 4.60409C12.2569 3.75686 11.2222 3.33325 10 3.33325C8.77778 3.33325 7.74306 3.75686 6.89583 4.60409C6.04861 5.45131 5.625 6.48603 5.625 7.70825C5.625 8.58325 5.86111 9.37145 6.33333 10.0728C6.80556 10.7742 7.41667 11.3055 8.16667 11.6666Z" fill="#626262"/>
</g>
</svg>
