<svg width="21" height="20" viewBox="0 0 21 20" fill="none" xmlns="http://www.w3.org/2000/svg">
<g clip-path="url(#clip0_169_224276)">
<path d="M18.5952 4.99191H12.6019L11.7295 4.11955C9.73902 2.12812 6.49902 2.12812 4.50857 4.11955L2.41522 6.21383C1.18 7.44906 0.5 9.09098 0.5 10.8367C0.5 14.4415 3.43237 17.3738 7.03714 17.3738H12.8809C13.9314 17.3738 14.7857 16.5195 14.7857 15.4681C14.7857 15.0767 14.6667 14.7119 14.4629 14.4091C15.2048 14.1481 15.7381 13.4405 15.7381 12.611C15.7381 12.2195 15.619 11.8548 15.4152 11.5519C16.1571 11.291 16.6904 10.5833 16.6904 9.75383C16.6904 9.40718 16.5971 9.08147 16.4342 8.80147H18.5952C19.6457 8.80147 20.5 7.94718 20.5 6.89669C20.5 5.8462 19.6457 4.99191 18.5952 4.99191ZM18.5952 7.85004H12.4048C12.1419 7.85004 11.9286 8.06339 11.9286 8.32624C11.9286 8.5891 12.1419 8.80245 12.4048 8.80245H14.7857C15.3114 8.80245 15.7381 9.23008 15.7381 9.75482C15.7381 10.2796 15.3114 10.7072 14.7857 10.7072H13.3571C13.0943 10.7072 12.8809 10.9205 12.8809 11.1834C12.8809 11.4462 13.0943 11.6596 13.3571 11.6596H13.8333C14.3591 11.6596 14.7857 12.0872 14.7857 12.612C14.7857 13.1367 14.3591 13.5643 13.8333 13.5643H12.881C12.6181 13.5643 12.4048 13.7777 12.4048 14.0405C12.4048 14.3034 12.6181 14.5167 12.881 14.5167C13.4067 14.5167 13.8333 14.9444 13.8333 15.4691C13.8333 15.9938 13.4067 16.4215 12.881 16.4215H7.03714C3.95808 16.4215 1.45237 13.9158 1.45237 10.8367C1.45237 9.34526 2.0333 7.94334 3.08857 6.88812L5.18192 4.79383C5.99241 3.98433 7.05527 3.57955 8.11906 3.57955C9.18286 3.57955 10.2457 3.98433 11.0562 4.79383L11.2553 4.9929H8.59527C8.33241 4.9929 8.11906 5.20624 8.11906 5.4691C8.11906 5.73196 8.33241 5.94531 8.59527 5.94531H18.5953C19.121 5.94531 19.5476 6.37294 19.5476 6.89767C19.5476 7.42241 19.1209 7.85004 18.5952 7.85004Z" fill="black"/>
</g>
<defs>
<clipPath id="clip0_169_224276">
<rect width="20" height="20" fill="white" transform="translate(0.5)"/>
</clipPath>
</defs>
</svg>
