<svg width="20" height="20" viewBox="0 0 20 20" fill="none" xmlns="http://www.w3.org/2000/svg">
<path d="M18.0952 4.99191H12.1019L11.2295 4.11955C9.23902 2.12812 5.99902 2.12812 4.00857 4.11955L1.91522 6.21383C0.68 7.44906 0 9.09098 0 10.8367C0 14.4415 2.93237 17.3738 6.53714 17.3738H12.3809C13.4314 17.3738 14.2857 16.5195 14.2857 15.4681C14.2857 15.0767 14.1667 14.7119 13.9629 14.4091C14.7048 14.1481 15.2381 13.4405 15.2381 12.611C15.2381 12.2195 15.119 11.8548 14.9152 11.5519C15.6571 11.291 16.1904 10.5833 16.1904 9.75383C16.1904 9.40718 16.0971 9.08147 15.9342 8.80147H18.0952C19.1457 8.80147 20 7.94718 20 6.89669C20 5.8462 19.1457 4.99191 18.0952 4.99191ZM18.0952 7.85004H11.9048C11.6419 7.85004 11.4286 8.06339 11.4286 8.32624C11.4286 8.5891 11.6419 8.80245 11.9048 8.80245H14.2857C14.8114 8.80245 15.2381 9.23008 15.2381 9.75482C15.2381 10.2796 14.8114 10.7072 14.2857 10.7072H12.8571C12.5943 10.7072 12.3809 10.9205 12.3809 11.1834C12.3809 11.4462 12.5943 11.6596 12.8571 11.6596H13.3333C13.8591 11.6596 14.2857 12.0872 14.2857 12.612C14.2857 13.1367 13.8591 13.5643 13.3333 13.5643H12.381C12.1181 13.5643 11.9048 13.7777 11.9048 14.0405C11.9048 14.3034 12.1181 14.5167 12.381 14.5167C12.9067 14.5167 13.3333 14.9444 13.3333 15.4691C13.3333 15.9938 12.9067 16.4215 12.381 16.4215H6.53714C3.45808 16.4215 0.952366 13.9158 0.952366 10.8367C0.952366 9.34526 1.5333 7.94334 2.58857 6.88812L4.68192 4.79383C5.49241 3.98433 6.55527 3.57955 7.61906 3.57955C8.68286 3.57955 9.74571 3.98433 10.5562 4.79383L10.7553 4.9929H8.09527C7.83241 4.9929 7.61906 5.20624 7.61906 5.4691C7.61906 5.73196 7.83241 5.94531 8.09527 5.94531H18.0953C18.621 5.94531 19.0476 6.37294 19.0476 6.89767C19.0476 7.42241 18.6209 7.85004 18.0952 7.85004Z" fill="white"/>
</svg>
