<svg width="20" height="20" viewBox="0 0 20 20" fill="none" xmlns="http://www.w3.org/2000/svg">
<path d="M18.0952 4.99204H12.1019L11.2295 4.11967C9.23902 2.12824 5.99902 2.12824 4.00857 4.11967L1.91522 6.21396C0.68 7.44918 0 9.0911 0 10.8368C0 14.4416 2.93237 17.374 6.53714 17.374H12.3809C13.4314 17.374 14.2857 16.5197 14.2857 15.4682C14.2857 15.0768 14.1667 14.712 13.9629 14.4092C14.7048 14.1482 15.2381 13.4406 15.2381 12.6111C15.2381 12.2197 15.119 11.8549 14.9152 11.552C15.6571 11.2911 16.1904 10.5835 16.1904 9.75396C16.1904 9.4073 16.0971 9.08159 15.9342 8.80159H18.0952C19.1457 8.80159 20 7.9473 20 6.89681C20 5.84632 19.1457 4.99204 18.0952 4.99204ZM18.0952 7.85016H11.9048C11.6419 7.85016 11.4286 8.06351 11.4286 8.32637C11.4286 8.58922 11.6419 8.80257 11.9048 8.80257H14.2857C14.8114 8.80257 15.2381 9.23021 15.2381 9.75494C15.2381 10.2797 14.8114 10.7073 14.2857 10.7073H12.8571C12.5943 10.7073 12.3809 10.9207 12.3809 11.1835C12.3809 11.4464 12.5943 11.6597 12.8571 11.6597H13.3333C13.8591 11.6597 14.2857 12.0873 14.2857 12.6121C14.2857 13.1369 13.8591 13.5644 13.3333 13.5644H12.381C12.1181 13.5644 11.9048 13.7778 11.9048 14.0407C11.9048 14.3035 12.1181 14.5169 12.381 14.5169C12.9067 14.5169 13.3333 14.9445 13.3333 15.4692C13.3333 15.994 12.9067 16.4216 12.381 16.4216H6.53714C3.45808 16.4216 0.952366 13.9159 0.952366 10.8368C0.952366 9.34539 1.5333 7.94347 2.58857 6.88824L4.68192 4.79396C5.49241 3.98445 6.55527 3.57967 7.61906 3.57967C8.68286 3.57967 9.74571 3.98445 10.5562 4.79396L10.7553 4.99302H8.09527C7.83241 4.99302 7.61906 5.20637 7.61906 5.46922C7.61906 5.73208 7.83241 5.94543 8.09527 5.94543H18.0953C18.621 5.94543 19.0476 6.37306 19.0476 6.8978C19.0476 7.42253 18.6209 7.85016 18.0952 7.85016Z" fill="#626262"/>
</svg>
