<svg width="24" height="25" viewBox="0 0 24 25" fill="none" xmlns="http://www.w3.org/2000/svg">
<mask id="mask0_558_8087" style="mask-type:alpha" maskUnits="userSpaceOnUse" x="0" y="0" width="24" height="25">
<rect y="0.5" width="24" height="24" fill="#D9D9D9"/>
</mask>
<g mask="url(#mask0_558_8087)">
<path d="M18.0592 15.9698C17.2026 15.1468 16.5217 14.1763 16.0167 13.0583C15.5119 11.9403 15.2595 10.7538 15.2595 9.49875C15.2595 8.24375 15.512 7.0585 16.017 5.943C16.5221 4.8275 17.2029 3.85692 18.0592 3.03125L19.2055 4.20825C18.4913 4.89158 17.9307 5.68675 17.5237 6.59375C17.1167 7.50075 16.9132 8.46992 16.9132 9.50125C16.9132 10.5326 17.1167 11.5067 17.5237 12.4235C17.9307 13.3402 18.4913 14.1402 19.2055 14.8235L18.0592 15.9698ZM21.317 12.712C20.8735 12.2992 20.5241 11.8168 20.269 11.265C20.0138 10.713 19.8862 10.1248 19.8862 9.5005C19.8862 8.86333 20.0138 8.272 20.269 7.7265C20.5241 7.181 20.8735 6.70183 21.317 6.289L22.494 7.466C22.2131 7.7365 21.9891 8.03967 21.8217 8.3755C21.6546 8.71133 21.571 9.08633 21.571 9.5005C21.571 9.90183 21.6546 10.2737 21.8217 10.616C21.9891 10.9582 22.2131 11.2645 22.494 11.535L21.317 12.712ZM8.85547 13.0005C7.89297 13.0005 7.06905 12.6578 6.38372 11.9723C5.69822 11.2869 5.35547 10.463 5.35547 9.5005C5.35547 8.538 5.69822 7.71408 6.38372 7.02875C7.06905 6.34325 7.89297 6.0005 8.85547 6.0005C9.81797 6.0005 10.6419 6.34325 11.3272 7.02875C12.0127 7.71408 12.3555 8.538 12.3555 9.5005C12.3555 10.463 12.0127 11.2869 11.3272 11.9723C10.6419 12.6578 9.81797 13.0005 8.85547 13.0005ZM1.35547 20.6158V18.3928C1.35547 17.8876 1.4843 17.4303 1.74197 17.0208C1.99964 16.6111 2.3593 16.2941 2.82097 16.0698C3.65164 15.6556 4.58114 15.3098 5.60947 15.0323C6.63764 14.7548 7.71964 14.616 8.85547 14.616C9.9913 14.616 11.0734 14.7548 12.1017 15.0323C13.1299 15.3098 14.0593 15.6556 14.89 16.0698C15.3516 16.2941 15.7113 16.6111 15.969 17.0208C16.2266 17.4303 16.3555 17.8876 16.3555 18.3928V20.6158H1.35547ZM2.85547 19.1158H14.8555V18.3928C14.8555 18.1646 14.7936 17.9691 14.67 17.8063C14.5461 17.6434 14.3901 17.5108 14.2017 17.4083C13.5889 17.0954 12.8116 16.8018 11.87 16.5275C10.9283 16.253 9.92347 16.1158 8.85547 16.1158C7.78747 16.1158 6.78264 16.253 5.84097 16.5275C4.8993 16.8018 4.12205 17.0954 3.50922 17.4083C3.32089 17.5108 3.1648 17.6434 3.04097 17.8063C2.9173 17.9691 2.85547 18.1646 2.85547 18.3928V19.1158ZM8.85547 11.5005C9.40547 11.5005 9.8763 11.3047 10.268 10.913C10.6596 10.5213 10.8555 10.0505 10.8555 9.5005C10.8555 8.9505 10.6596 8.47967 10.268 8.088C9.8763 7.69633 9.40547 7.5005 8.85547 7.5005C8.30547 7.5005 7.83464 7.69633 7.44297 8.088C7.0513 8.47967 6.85547 8.9505 6.85547 9.5005C6.85547 10.0505 7.0513 10.5213 7.44297 10.913C7.83464 11.3047 8.30547 11.5005 8.85547 11.5005Z" fill="white"/>
</g>
</svg>
