<svg width="20" height="20" viewBox="0 0 20 20" fill="none" xmlns="http://www.w3.org/2000/svg">
<g clip-path="url(#clip0_169_224332)">
<path d="M19.5859 10.9981C19.0265 11.5575 18.1365 11.5575 17.577 10.9981L9.99907 3.43294L2.43395 10.9981C1.87454 11.5575 0.984525 11.5575 0.425054 10.9981C-0.134361 10.4386 -0.134361 9.54862 0.425054 8.98915L8.99465 0.419561C9.55406 -0.139854 10.4441 -0.139854 11.0035 0.419561L19.5731 8.98915C20.1326 9.54862 20.1326 10.4386 19.5859 10.9981Z" fill="white"/>
<path d="M19.586 19.5801C19.0265 20.1395 18.1365 20.1395 17.5771 19.5801L9.99909 12.0023L2.43397 19.5674C1.87456 20.1268 0.984546 20.1268 0.425075 19.5674C-0.134395 19.008 -0.13434 18.118 0.425075 17.5585L8.99467 8.9889C9.55408 8.42948 10.4441 8.42948 11.0036 8.9889L19.5732 17.5585C20.1326 18.118 20.1326 19.0207 19.586 19.5801Z" fill="white"/>
</g>
<defs>
<clipPath id="clip0_169_224332">
<rect width="20" height="20" fill="white"/>
</clipPath>
</defs>
</svg>
