<svg width="20" height="20" viewBox="0 0 20 20" fill="none" xmlns="http://www.w3.org/2000/svg">
<path d="M14.6687 20H5.33125C4.44775 20 3.60043 19.649 2.9757 19.0243C2.35097 18.3996 2 17.5523 2 16.6688V3.33125C2 2.44775 2.35097 1.60043 2.9757 0.975701C3.60043 0.35097 4.44775 0 5.33125 0L10.4187 0C11.1594 0.00256412 11.8783 0.250976 12.4625 0.70625L16.7125 4.00625C17.1145 4.31676 17.4397 4.71557 17.6629 5.17182C17.8862 5.62807 18.0015 6.12956 18 6.6375V16.6375C18.0041 17.0776 17.921 17.5141 17.7554 17.9219C17.5899 18.3297 17.3452 18.7006 17.0354 19.0133C16.7257 19.3259 16.357 19.5741 15.9508 19.7435C15.5446 19.9128 15.1089 20 14.6687 20ZM5.33125 1.33125C4.80082 1.33125 4.29211 1.54196 3.91704 1.91704C3.54196 2.29211 3.33125 2.80082 3.33125 3.33125V16.6688C3.33125 17.1992 3.54196 17.7079 3.91704 18.083C4.29211 18.458 4.80082 18.6688 5.33125 18.6688H14.6687C15.1992 18.6688 15.7079 18.458 16.083 18.083C16.458 17.7079 16.6687 17.1992 16.6687 16.6688V6.66875C16.6697 6.36335 16.6003 6.06184 16.4659 5.78761C16.3315 5.51338 16.1357 5.27381 15.8937 5.0875L11.6437 1.78125C11.287 1.50261 10.8464 1.35283 10.3937 1.35625L5.33125 1.33125Z" fill="white"/>
<path d="M13.3312 7.33144H6.66875C6.57592 7.34045 6.48223 7.32994 6.3937 7.30059C6.30518 7.27123 6.22377 7.22369 6.15471 7.161C6.08565 7.09832 6.03046 7.02188 5.9927 6.9366C5.95493 6.85132 5.93542 6.75909 5.93542 6.66582C5.93542 6.57255 5.95493 6.48032 5.9927 6.39504C6.03046 6.30976 6.08565 6.23332 6.15471 6.17064C6.22377 6.10795 6.30518 6.06041 6.3937 6.03105C6.48223 6.0017 6.57592 5.99119 6.66875 6.0002H13.3312C13.4241 5.99119 13.5178 6.0017 13.6063 6.03105C13.6948 6.06041 13.7762 6.10795 13.8453 6.17064C13.9144 6.23332 13.9695 6.30976 14.0073 6.39504C14.0451 6.48032 14.0646 6.57255 14.0646 6.66582C14.0646 6.75909 14.0451 6.85132 14.0073 6.9366C13.9695 7.02188 13.9144 7.09832 13.8453 7.161C13.7762 7.22369 13.6948 7.27123 13.6063 7.30059C13.5178 7.32994 13.4241 7.34045 13.3312 7.33144Z" fill="white"/>
<path d="M13.3313 10.6691H6.66875C6.50334 10.6531 6.34984 10.576 6.23814 10.453C6.12645 10.3299 6.06458 10.1697 6.06458 10.0035C6.06458 9.83733 6.12645 9.6771 6.23814 9.55405C6.34984 9.431 6.50334 9.35394 6.66875 9.33789H13.3313C13.4967 9.35394 13.6502 9.431 13.7619 9.55405C13.8736 9.6771 13.9354 9.83733 13.9354 10.0035C13.9354 10.1697 13.8736 10.3299 13.7619 10.453C13.6502 10.576 13.4967 10.6531 13.3313 10.6691Z" fill="white"/>
<path d="M12 16.6689H8C7.46957 16.6689 6.96086 16.4582 6.58579 16.0832C6.21071 15.7081 6 15.1994 6 14.6689C6 14.1385 6.21071 13.6298 6.58579 13.2547C6.96086 12.8797 7.46957 12.6689 8 12.6689H12C12.5304 12.6689 13.0391 12.8797 13.4142 13.2547C13.7893 13.6298 14 14.1385 14 14.6689C14 15.1994 13.7893 15.7081 13.4142 16.0832C13.0391 16.4582 12.5304 16.6689 12 16.6689ZM8 14.0002C7.83459 14.0162 7.68108 14.0933 7.56939 14.2164C7.4577 14.3394 7.39582 14.4996 7.39582 14.6658C7.39582 14.832 7.4577 14.9922 7.56939 15.1153C7.68108 15.2383 7.83459 15.3154 8 15.3314H12C12.1654 15.3154 12.3189 15.2383 12.4306 15.1153C12.5423 14.9922 12.6042 14.832 12.6042 14.6658C12.6042 14.4996 12.5423 14.3394 12.4306 14.2164C12.3189 14.0933 12.1654 14.0162 12 14.0002H8Z" fill="white"/>
</svg>
