<svg width="40" height="40" viewBox="0 0 40 40" fill="none" xmlns="http://www.w3.org/2000/svg">
<rect x="0.644531" y="0.509766" width="38.706" height="38.706" rx="19.353" fill="#FFC107"/>
<mask id="mask0_1306_102431" style="mask-type:alpha" maskUnits="userSpaceOnUse" x="9" y="9" width="22" height="21">
<rect x="9.89844" y="9.78906" width="20.1483" height="20.1483" fill="#D9D9D9"/>
</mask>
<g mask="url(#mask0_1306_102431)">
<path d="M19.9718 27.8386C18.9816 27.8386 18.0539 27.6513 17.1886 27.2767C16.3232 26.9022 15.5687 26.3931 14.9251 25.7494C14.2814 25.1058 13.7723 24.3513 13.3978 23.4859C13.0232 22.6206 12.8359 21.6929 12.8359 20.7027H14.0952C14.0952 22.3398 14.6654 23.7284 15.8057 24.8688C16.9461 26.0091 18.3348 26.5793 19.9718 26.5793C21.6089 26.5793 22.9976 26.0091 24.1379 24.8688C25.2782 23.7284 25.8484 22.3398 25.8484 20.7027C25.8484 19.0656 25.2782 17.6769 24.1379 16.5366C22.9976 15.3963 21.6089 14.8261 19.9718 14.8261H19.7489L21.0825 16.1597L20.1979 17.0701L17.3242 14.1885L20.214 11.3066L21.0986 12.2171L19.7489 13.5668H19.9718C20.962 13.5668 21.8898 13.7541 22.755 14.1287C23.6204 14.5032 24.3749 15.0123 25.0186 15.656C25.6622 16.2996 26.1713 17.0541 26.5458 17.9195C26.9204 18.7848 27.1077 19.7125 27.1077 20.7027C27.1077 21.6929 26.9204 22.6206 26.5458 23.4859C26.1713 24.3513 25.6622 25.1058 25.0186 25.7494C24.3749 26.3931 23.6204 26.9022 22.755 27.2767C21.8898 27.6513 20.962 27.8386 19.9718 27.8386Z" fill="#1C1B1F"/>
</g>
</svg>
