<svg width="373" height="207" viewBox="0 0 373 207" fill="none" xmlns="http://www.w3.org/2000/svg">
<g opacity="0.2">
<path d="M318.059 54.4395L274.196 98.3021L230.334 142.164C241.576 153.379 248.499 168.859 248.499 185.999H310.499H372.499C372.499 134.577 351.703 88.0839 318.059 54.4395Z" fill="url(#paint0_linear_597_267510)"/>
<path d="M186.5 0V62V124C203.641 124 219.12 130.923 230.335 142.166L274.197 98.3032L318.06 54.4406C284.415 20.7959 237.922 0 186.5 0Z" fill="url(#paint1_linear_597_267510)"/>
<path d="M54.9395 54.4404L98.8018 98.303L142.637 142.165H142.664C153.879 130.923 169.359 124 186.499 124V62V0C135.077 0 88.5839 20.7959 54.9395 54.4404Z" fill="url(#paint2_linear_597_267510)"/>
<path d="M98.8027 98.3021L54.9404 54.4395C21.2959 88.0839 0.5 134.577 0.5 185.999H62.5H124.5C124.5 168.859 131.423 153.379 142.638 142.165L98.8027 98.3021Z" fill="url(#paint3_linear_597_267510)"/>
</g>
<path d="M289.113 83.3867L254.901 117.599L220.689 151.81C229.458 160.558 234.858 172.631 234.858 186H283.217H331.575C331.575 145.893 315.355 109.629 289.113 83.3867Z" fill="url(#paint4_linear_597_267510)"/>
<path d="M186.5 40.9238V89.2826V137.641C199.87 137.641 211.943 143.041 220.69 151.81L254.902 117.598L289.114 83.3861C262.872 57.144 226.608 40.9238 186.5 40.9238Z" fill="url(#paint5_linear_597_267510)"/>
<path d="M83.8867 83.3861L118.098 117.598L152.289 151.81H152.31C161.058 143.041 173.131 137.641 186.5 137.641V89.2826V40.9238C146.393 40.9238 110.129 57.144 83.8867 83.3861Z" fill="url(#paint6_linear_597_267510)"/>
<path d="M118.098 117.599L83.8861 83.3867C57.644 109.629 41.4238 145.893 41.4238 186.001H89.7826H138.141C138.141 172.631 143.541 160.558 152.288 151.811L118.098 117.599Z" fill="url(#paint7_linear_597_267510)"/>
<path d="M316.536 88.7379L315.207 89.7806L310.861 84.2402L318.015 78.627L322.258 84.0347L320.929 85.0766L317.979 81.3148L316.425 82.5345L319.03 85.856L317.743 86.8662L315.137 83.5446L313.48 84.8434L316.536 88.7379Z" fill="white"/>
<path d="M320.511 97.3739L321.884 93.7819L318.06 93.7762L316.701 91.7788L322.418 91.9573L324.313 86.8008L325.66 88.7767L324.397 92.1649L327.991 92.2021L329.271 94.0814L323.856 93.9323L321.877 99.3814L320.511 97.3739Z" fill="white"/>
<path d="M324.62 103.06C324.59 102.209 324.776 101.419 325.176 100.689C325.575 99.9574 326.165 99.3643 326.942 98.91C327.719 98.4557 328.525 98.2329 329.359 98.2425C330.192 98.2519 330.972 98.4779 331.697 98.9211C332.423 99.3643 333.023 99.9899 333.495 100.798C333.892 101.479 334.133 102.164 334.215 102.853C334.296 103.543 334.222 104.205 333.993 104.842L332.233 104.305C332.536 103.415 332.458 102.578 332 101.793C331.716 101.307 331.354 100.936 330.92 100.679C330.482 100.422 330.013 100.299 329.505 100.308C329.001 100.319 328.504 100.465 328.018 100.75C327.532 101.034 327.161 101.394 326.904 101.83C326.647 102.266 326.524 102.737 326.533 103.243C326.543 103.749 326.69 104.245 326.974 104.731C327.434 105.516 328.129 105.992 329.06 106.161L328.665 107.957C327.991 107.85 327.372 107.589 326.809 107.176C326.246 106.762 325.766 106.215 325.368 105.535C324.899 104.734 324.65 103.91 324.62 103.06Z" fill="white"/>
<path d="M333.589 117.216L332.077 117.966L328.949 111.657L337.098 107.619L340.15 113.776L338.636 114.527L336.514 110.243L334.744 111.12L336.619 114.903L335.151 115.63L333.277 111.847L331.391 112.781L333.589 117.216Z" fill="white"/>
<path d="M341.948 117.775L342.76 119.717L335.952 122.563L337.71 126.77L336.128 127.432L333.559 121.283L341.948 117.775Z" fill="white"/>
<path d="M345.79 127.334L346.482 129.322L339.512 131.747L341.01 136.053L339.391 136.617L337.201 130.322L345.79 127.334Z" fill="white"/>
<path d="M343.82 145.956L342.193 146.408L340.311 139.622L349.074 137.191L350.911 143.814L349.284 144.266L348.005 139.659L346.104 140.186L347.232 144.255L345.655 144.693L344.526 140.624L342.497 141.186L343.82 145.956Z" fill="white"/>
<path d="M353.602 156.277L344.686 158.069L344.345 156.375L348.865 150.841L343.452 151.929L343.041 149.892L351.957 148.1L352.301 149.806L347.778 155.326L353.193 154.239L353.602 156.277Z" fill="white"/>
<path d="M352.868 163.038L352.493 160.151L354.195 159.932L355.212 167.791L353.51 168.011L353.137 165.125L345.818 166.071L345.549 163.984L352.868 163.038Z" fill="white"/>
<path d="M232.391 27.0844L234.245 27.591L233.273 31.1504C232.699 31.3797 232.071 31.5041 231.392 31.5249C230.713 31.5463 230.057 31.4694 229.421 31.2966C228.511 31.0474 227.745 30.6288 227.125 30.0422C226.505 29.4545 226.081 28.7599 225.856 27.9575C225.631 27.1559 225.637 26.32 225.873 25.4509C226.111 24.582 226.532 23.8595 227.133 23.2831C227.735 22.7076 228.457 22.3252 229.299 22.1382C230.139 21.9503 231.02 21.9819 231.939 22.2333C232.708 22.4436 233.37 22.7638 233.926 23.1944C234.481 23.6241 234.905 24.1444 235.197 24.7535L233.565 25.6002C233.118 24.7693 232.451 24.2327 231.567 23.9906C231.007 23.8375 230.477 23.8185 229.979 23.9337C229.481 24.0493 229.051 24.2864 228.693 24.6463C228.334 25.0064 228.081 25.4615 227.928 26.0134C227.781 26.5567 227.77 27.0736 227.895 27.5661C228.02 28.0583 228.266 28.4826 228.632 28.838C228.997 29.1939 229.456 29.4469 230.006 29.5977C230.591 29.7579 231.151 29.7759 231.689 29.6539L232.391 27.0844Z" fill="white"/>
<path d="M238.56 33.4541C237.984 32.8149 237.615 32.087 237.453 31.2694C237.29 30.452 237.36 29.6233 237.661 28.7834C237.962 27.9439 238.435 27.2601 239.08 26.7321C239.726 26.2048 240.473 25.8772 241.324 25.7495C242.174 25.6226 243.043 25.7187 243.933 26.0374C244.821 26.3561 245.552 26.8343 246.123 27.4718C246.696 28.1092 247.064 28.8372 247.23 29.6563C247.396 30.4754 247.328 31.3049 247.029 32.1437C246.727 32.9835 246.252 33.6671 245.603 34.1926C244.954 34.7194 244.206 35.0467 243.359 35.1752C242.513 35.3043 241.645 35.2092 240.756 34.8904C239.868 34.572 239.135 34.093 238.56 33.4541ZM242.856 33.3464C243.348 33.2599 243.784 33.0506 244.166 32.7183C244.547 32.386 244.832 31.9546 245.022 31.4249C245.213 30.8954 245.267 30.3807 245.183 29.8811C245.1 29.3822 244.895 28.9429 244.572 28.5648C244.247 28.1866 243.833 27.9059 243.327 27.725C242.821 27.5433 242.323 27.4957 241.833 27.5822C241.342 27.668 240.906 27.8773 240.525 28.2096C240.143 28.5426 239.857 28.9732 239.667 29.5034C239.477 30.0332 239.423 30.5479 239.507 31.0465C239.59 31.5462 239.792 31.9847 240.117 32.3638C240.443 32.742 240.857 33.0217 241.362 33.2036C241.866 33.3843 242.364 33.4319 242.856 33.3464Z" fill="white"/>
<path d="M250.631 38.1224C250.108 37.4388 249.798 36.6831 249.703 35.8553C249.608 35.0283 249.744 34.2075 250.112 33.3948C250.48 32.5828 251.007 31.9389 251.692 31.4657C252.378 30.9914 253.149 30.7259 254.009 30.6677C254.866 30.6091 255.726 30.775 256.586 31.1649C257.445 31.5542 258.134 32.0903 258.654 32.7721C259.171 33.4542 259.48 34.209 259.58 35.0392C259.678 35.8686 259.545 36.6892 259.177 37.5022C258.809 38.3149 258.28 38.9573 257.591 39.4291C256.901 39.9016 256.129 40.1671 255.276 40.2267C254.421 40.2869 253.563 40.122 252.704 39.7328C251.844 39.3425 251.152 38.8067 250.631 38.1224ZM254.922 38.3625C255.419 38.3166 255.869 38.1428 256.277 37.8424C256.684 37.5426 257.005 37.1359 257.236 36.6227C257.468 36.1097 257.563 35.6014 257.522 35.0971C257.479 34.5928 257.311 34.1392 257.017 33.7357C256.725 33.3322 256.335 33.0196 255.845 32.7977C255.357 32.5764 254.864 32.4884 254.367 32.5345C253.871 32.5803 253.419 32.7541 253.013 33.0546C252.605 33.3551 252.285 33.7618 252.053 34.274C251.821 34.7872 251.727 35.2953 251.768 35.7999C251.811 36.3042 251.979 36.7578 252.271 37.1613C252.564 37.5648 252.954 37.8781 253.443 38.0992C253.933 38.3211 254.426 38.4083 254.922 38.3625Z" fill="white"/>
<path d="M264.766 35.2559L268.382 37.254C269.246 37.7322 269.919 38.3189 270.399 39.0152C270.882 39.7113 271.14 40.4607 271.176 41.2633C271.213 42.0649 271.012 42.8643 270.572 43.6605C270.133 44.4557 269.562 45.052 268.864 45.4476C268.165 45.8435 267.392 46.0225 266.549 45.9852C265.702 45.9488 264.847 45.6909 263.983 45.2137L260.367 43.2153L264.766 35.2559ZM264.728 43.6516C265.524 44.0909 266.282 44.22 267.001 44.0386C267.719 43.8569 268.288 43.3876 268.707 42.6296C269.126 41.8717 269.221 41.1395 268.993 40.4348C268.764 39.7293 268.252 39.1567 267.456 38.7165L265.773 37.7864L263.046 42.7216L264.728 43.6516Z" fill="white"/>
<path d="M106.729 38.0228L107.86 40.1446L111.574 38.1655L112.369 39.6561L108.653 41.6355L110.211 44.559L108.354 45.5484L104.078 37.5216L110.144 34.291L110.939 35.7819L106.729 38.0228Z" fill="white"/>
<path d="M121.727 36.7794L117.876 38.5121L117.943 40.6199L115.975 41.5041L115.941 31.5477L117.837 30.6953L125.276 37.3205L123.262 38.2269L121.727 36.7794ZM120.468 35.5938L117.724 33.0104L117.838 36.7769L120.468 35.5938Z" fill="white"/>
<path d="M124.762 27.8139L126.728 27.0605L129.981 35.5532L128.016 36.3062L124.762 27.8139Z" fill="white"/>
<path d="M139.374 32.3448L136.93 30.4677L136.83 30.4992L135.086 31.0583L135.86 33.4703L133.855 34.1126L131.08 25.4521L134.829 24.2509C135.597 24.0052 136.304 23.9204 136.951 23.9948C137.598 24.0693 138.148 24.2931 138.603 24.6648C139.06 25.0375 139.392 25.5451 139.598 26.1882C139.804 26.832 139.826 27.4362 139.666 28.0017C139.508 28.5662 139.183 29.0641 138.692 29.494L141.526 31.6548L139.374 32.3448ZM136.739 25.8697C136.342 25.7102 135.844 25.7277 135.241 25.9205L133.608 26.4438L134.575 29.4624L136.209 28.9391C136.811 28.7466 137.227 28.4673 137.455 28.1035C137.684 27.7387 137.722 27.3177 137.568 26.8387C137.413 26.3524 137.137 26.0289 136.739 25.8697Z" fill="white"/>
<path d="M24.0655 138.188C24.4826 137.688 24.9727 137.35 25.5342 137.172C26.0957 136.995 26.7014 136.998 27.3516 137.177C27.9955 137.356 28.5126 137.666 28.9073 138.108C29.3022 138.55 29.5465 139.093 29.6433 139.734C29.74 140.377 29.6798 141.086 29.4641 141.862L28.9741 143.628L31.391 144.298L30.828 146.326L22.0645 143.895L23.1175 140.102C23.3327 139.326 23.6482 138.687 24.0655 138.188ZM27.7717 140.017C27.5956 139.628 27.2673 139.365 26.782 139.231C26.2904 139.094 25.8684 139.148 25.5179 139.392C25.1659 139.637 24.9059 140.064 24.7375 140.673L24.2793 142.325L27.321 143.169L27.7793 141.516C27.9494 140.908 27.9462 140.408 27.7717 140.017Z" fill="white"/>
<path d="M34.2051 133.459C33.566 134.034 32.8366 134.401 32.0182 134.561C31.1998 134.722 30.3721 134.65 29.533 134.347C28.6941 134.045 28.0121 133.57 27.4856 132.923C26.9588 132.278 26.6324 131.529 26.5087 130.678C26.382 129.827 26.4801 128.958 26.8005 128.069C27.1225 127.181 27.6029 126.453 28.2406 125.882C28.8798 125.312 29.6092 124.945 30.4293 124.78C31.2476 124.615 32.0769 124.685 32.9159 124.988C33.7548 125.291 34.4369 125.769 34.9619 126.418C35.4867 127.068 35.8118 127.816 35.9388 128.664C36.0657 129.511 35.9688 130.378 35.6469 131.266C35.3265 132.154 34.8458 132.885 34.2051 133.459ZM34.1085 129.162C34.0227 128.672 33.8135 128.235 33.4836 127.852C33.1506 127.47 32.721 127.183 32.191 126.992C31.663 126.801 31.1476 126.746 30.6479 126.828C30.1483 126.911 29.709 127.113 29.3301 127.436C28.951 127.76 28.6702 128.174 28.4878 128.679C28.3039 129.184 28.2564 129.682 28.3419 130.173C28.426 130.664 28.6338 131.101 28.9653 131.483C29.2968 131.865 29.728 132.153 30.258 132.344C30.7877 132.535 31.3014 132.589 31.801 132.508C32.3007 132.425 32.7382 132.223 33.1188 131.899C33.4979 131.576 33.7787 131.162 33.9611 130.657C34.1433 130.152 34.1923 129.654 34.1085 129.162Z" fill="white"/>
<path d="M38.8754 121.457C38.1903 121.978 37.4353 122.285 36.6076 122.379C35.7798 122.473 34.9582 122.335 34.1463 121.966C33.336 121.597 32.6937 121.068 32.2211 120.382C31.7486 119.696 31.4836 118.924 31.4264 118.065C31.3709 117.207 31.5376 116.348 31.9293 115.489C32.321 114.63 32.8586 113.942 33.5406 113.424C34.2224 112.907 34.979 112.6 35.8084 112.501C36.6394 112.404 37.4592 112.539 38.2712 112.909C39.0832 113.279 39.7255 113.809 40.1949 114.499C40.6659 115.19 40.9309 115.962 40.9896 116.817C41.0483 117.671 40.8801 118.528 40.4902 119.387C40.0983 120.246 39.5604 120.936 38.8754 121.457ZM39.1243 117.166C39.0785 116.67 38.9072 116.217 38.6059 115.809C38.3077 115.402 37.9017 115.082 37.388 114.848C36.8775 114.614 36.3682 114.519 35.8639 114.561C35.3595 114.602 34.9045 114.769 34.5017 115.061C34.0972 115.353 33.7832 115.743 33.5613 116.231C33.3378 116.721 33.2488 117.213 33.2949 117.71C33.3407 118.206 33.512 118.658 33.812 119.065C34.1118 119.473 34.5175 119.793 35.03 120.027C35.5422 120.261 36.0512 120.356 36.5556 120.315C37.0599 120.273 37.5135 120.107 37.918 119.815C38.3225 119.523 38.6348 119.133 38.8584 118.644C39.08 118.155 39.1687 117.663 39.1243 117.166Z" fill="white"/>
<path d="M46.8127 106.624L43.7472 106.938L43.6964 107.03L42.813 108.635L45.0332 109.857L44.0167 111.7L36.0508 107.313L37.9508 103.865C38.3376 103.159 38.7943 102.611 39.3147 102.221C39.8365 101.831 40.3899 101.615 40.9783 101.572C41.5652 101.53 42.1536 101.671 42.7467 101.997C43.338 102.323 43.7697 102.746 44.0408 103.267C44.3134 103.787 44.4199 104.371 44.3581 105.021L47.9042 104.644L46.8127 106.624ZM40.4501 103.729C40.052 103.886 39.7017 104.241 39.3955 104.794L38.5693 106.297L41.3446 107.826L42.1726 106.324C42.477 105.769 42.5879 105.282 42.5041 104.86C42.4201 104.438 42.1583 104.106 41.719 103.863C41.2699 103.617 40.8481 103.572 40.4501 103.729Z" fill="white"/>
<path d="M182.518 177.195L277.972 132.729C278.984 132.25 279.913 133.757 278.894 134.402L190.361 191.415C180.457 197.21 172.298 182.522 182.518 177.195Z" fill="#1D3B63"/>
<path d="M175.202 165.679C185.492 159.481 198.863 162.783 205.069 173.073C207.307 176.788 208.306 180.892 208.186 184.93C207.977 192.073 204.25 198.971 197.678 202.925C187.394 209.141 174.021 205.833 167.814 195.543C161.607 185.259 164.919 171.895 175.202 165.679Z" fill="#1D3B63"/>
<path d="M180.783 174.927C185.962 171.807 192.692 173.47 195.816 178.649C196.942 180.519 197.446 182.584 197.385 184.617C197.28 188.213 195.404 191.685 192.096 193.675C186.92 196.804 180.188 195.139 177.064 189.959C173.94 184.783 175.606 178.056 180.783 174.927Z" fill="white"/>
<defs>
<linearGradient id="paint0_linear_597_267510" x1="301.416" y1="188.432" x2="301.416" y2="153.798" gradientUnits="userSpaceOnUse">
<stop stop-color="#00963A"/>
<stop offset="0.1576" stop-color="#06A541"/>
<stop offset="0.4706" stop-color="#0FBD4B"/>
<stop offset="0.7597" stop-color="#14CC52"/>
<stop offset="1" stop-color="#16D154"/>
</linearGradient>
<linearGradient id="paint1_linear_597_267510" x1="268.588" y1="105.189" x2="238.359" y2="75.5772" gradientUnits="userSpaceOnUse">
<stop stop-color="#FFAC05"/>
<stop offset="0.1821" stop-color="#FFBE10"/>
<stop offset="0.494" stop-color="#FFD820"/>
<stop offset="0.776" stop-color="#FFE82A"/>
<stop offset="1" stop-color="#FFED2D"/>
</linearGradient>
<linearGradient id="paint2_linear_597_267510" x1="185.82" y1="71.0827" x2="139.536" y2="71.0827" gradientUnits="userSpaceOnUse">
<stop stop-color="#FF4D05"/>
<stop offset="0.2771" stop-color="#FF6E16"/>
<stop offset="0.5535" stop-color="#FF8822"/>
<stop offset="0.8024" stop-color="#FF982A"/>
<stop offset="1" stop-color="#FF9D2D"/>
</linearGradient>
<linearGradient id="paint3_linear_597_267510" x1="104.13" y1="103.358" x2="83.1554" y2="127.417" gradientUnits="userSpaceOnUse">
<stop stop-color="#FF0508"/>
<stop offset="0.0461" stop-color="#FF0C0B"/>
<stop offset="0.3221" stop-color="#FF2F1A"/>
<stop offset="0.5813" stop-color="#FF4924"/>
<stop offset="0.8147" stop-color="#FF592B"/>
<stop offset="1" stop-color="#FF5E2D"/>
</linearGradient>
<linearGradient id="paint4_linear_597_267510" x1="276.132" y1="187.898" x2="276.132" y2="160.884" gradientUnits="userSpaceOnUse">
<stop stop-color="#00963A"/>
<stop offset="0.1576" stop-color="#06A541"/>
<stop offset="0.4706" stop-color="#0FBD4B"/>
<stop offset="0.7597" stop-color="#14CC52"/>
<stop offset="1" stop-color="#16D154"/>
</linearGradient>
<linearGradient id="paint5_linear_597_267510" x1="250.527" y1="122.969" x2="226.949" y2="99.8723" gradientUnits="userSpaceOnUse">
<stop stop-color="#FFAC05"/>
<stop offset="0.1821" stop-color="#FFBE10"/>
<stop offset="0.494" stop-color="#FFD820"/>
<stop offset="0.776" stop-color="#FFE82A"/>
<stop offset="1" stop-color="#FFED2D"/>
</linearGradient>
<linearGradient id="paint6_linear_597_267510" x1="185.971" y1="96.3667" x2="149.87" y2="96.3667" gradientUnits="userSpaceOnUse">
<stop stop-color="#FF4D05"/>
<stop offset="0.2771" stop-color="#FF6E16"/>
<stop offset="0.5535" stop-color="#FF8822"/>
<stop offset="0.8024" stop-color="#FF982A"/>
<stop offset="1" stop-color="#FF9D2D"/>
</linearGradient>
<linearGradient id="paint7_linear_597_267510" x1="122.253" y1="121.542" x2="105.893" y2="140.308" gradientUnits="userSpaceOnUse">
<stop stop-color="#FF0508"/>
<stop offset="0.0461" stop-color="#FF0C0B"/>
<stop offset="0.3221" stop-color="#FF2F1A"/>
<stop offset="0.5813" stop-color="#FF4924"/>
<stop offset="0.8147" stop-color="#FF592B"/>
<stop offset="1" stop-color="#FF5E2D"/>
</linearGradient>
</defs>
</svg>
