<svg width="24" height="24" viewBox="0 0 24 24" fill="none" xmlns="http://www.w3.org/2000/svg">
<mask id="mask0_597_265733" style="mask-type:alpha" maskUnits="userSpaceOnUse" x="0" y="0" width="24" height="24">
<rect width="24" height="24" fill="#D9D9D9"/>
</mask>
<g mask="url(#mask0_597_265733)">
<path d="M16.7517 9.94225C16.2711 9.94225 15.859 9.77458 15.5155 9.43925C15.1718 9.10375 15 8.68808 15 8.19225V4C15 3.50417 15.1714 3.08858 15.5143 2.75325C15.8569 2.41775 16.2689 2.25 16.7503 2.25C17.2463 2.25 17.6618 2.41775 17.997 2.75325C18.3323 3.08858 18.5 3.50417 18.5 4V8.19225C18.5 8.68808 18.3325 9.10375 17.9975 9.43925C17.6623 9.77458 17.2471 9.94225 16.7517 9.94225ZM5.30775 21.5C4.81058 21.5 4.385 21.323 4.031 20.969C3.677 20.615 3.5 20.1894 3.5 19.6923V4.30775C3.5 3.81058 3.677 3.385 4.031 3.031C4.385 2.677 4.81058 2.5 5.30775 2.5H12.75V4H5.30775C5.21792 4 5.14417 4.02883 5.0865 4.0865C5.02883 4.14417 5 4.21792 5 4.30775V19.6923C5 19.7821 5.02883 19.8558 5.0865 19.9135C5.14417 19.9712 5.21792 20 5.30775 20H15.6923C15.7821 20 15.8558 19.9712 15.9135 19.9135C15.9712 19.8558 16 19.7821 16 19.6923V17.8652H17.5V19.6883C17.5 20.1896 17.323 20.6169 16.969 20.9703C16.615 21.3234 16.1894 21.5 15.6923 21.5H5.30775ZM7.25 17.8652V16.25H13.75V17.8652H7.25ZM7.25 14.8652V13.3655H11.75V14.8652H7.25ZM17.5 15.75H16V13.1885C14.7423 13.0128 13.6779 12.4577 12.8068 11.523C11.9356 10.5885 11.5 9.47825 11.5 8.19225H13C13 9.19108 13.3705 10.0338 14.1115 10.7203C14.8525 11.4067 15.7317 11.75 16.7492 11.75C17.7844 11.75 18.6683 11.4067 19.401 10.7203C20.1337 10.0338 20.5 9.19108 20.5 8.19225H22C22 9.48458 21.5686 10.5965 20.7057 11.528C19.8429 12.4593 18.7743 13.0128 17.5 13.1885V15.75Z" fill="white"/>
</g>
</svg>
