<svg width="20" height="24" viewBox="0 0 20 24" fill="none" xmlns="http://www.w3.org/2000/svg">
<path d="M19.3437 8.1C19.3145 8.03316 19.2664 7.97627 19.2054 7.93631C19.1444 7.89634 19.0731 7.87504 19.0002 7.875H9.92515L13.7085 0.547125C13.7381 0.489946 13.7524 0.426127 13.7501 0.361807C13.7479 0.297488 13.7291 0.234834 13.6956 0.179874C13.6621 0.124913 13.615 0.0794971 13.5589 0.0479946C13.5028 0.0164921 13.4395 -3.6227e-05 13.3752 5.96197e-08H7.61703C7.54914 -2.71921e-05 7.48251 0.0183763 7.42426 0.0532472C7.36601 0.0881181 7.31832 0.138148 7.28628 0.198L0.669401 12.573C0.638805 12.6301 0.623545 12.6942 0.625109 12.759C0.626673 12.8238 0.645008 12.8871 0.678324 12.9427C0.711641 12.9983 0.758802 13.0444 0.815206 13.0763C0.871609 13.1082 0.93533 13.125 1.00015 13.125H8.68765L4.40365 23.4814C4.36994 23.5627 4.36589 23.6532 4.3922 23.7372C4.41851 23.8211 4.4735 23.8932 4.54756 23.9407C4.62162 23.9882 4.71002 24.0081 4.79731 23.997C4.88459 23.9859 4.9652 23.9445 5.02503 23.88L19.275 8.505C19.3246 8.45149 19.3575 8.38467 19.3697 8.31273C19.3819 8.2408 19.3729 8.16686 19.3437 8.1Z" fill="url(#paint0_linear_1629_4071)"/>
<defs>
<linearGradient id="paint0_linear_1629_4071" x1="10" y1="0" x2="10" y2="24" gradientUnits="userSpaceOnUse">
<stop stop-color="#FFD747"/>
<stop offset="1" stop-color="#FF5147"/>
</linearGradient>
</defs>
</svg>
